<mxfile host="app.diagrams.net" agent="Mozilla/5.0 (Windows NT 10.0; Win64; x64) AppleWebKit/537.36 (KHTML, like Gecko) Chrome/136.0.0.0 Safari/537.36 Edg/136.0.0.0" version="27.0.9">
  <diagram name="第 1 页" id="NMjHIoMmWXEk1-AbFlm0">
    <mxGraphModel dx="3976" dy="4638" grid="1" gridSize="10" guides="1" tooltips="1" connect="1" arrows="1" fold="1" page="1" pageScale="1" pageWidth="827" pageHeight="1169" math="0" shadow="0">
      <root>
        <mxCell id="0" />
        <mxCell id="1" parent="0" />
        <mxCell id="frIAkInVryvBUzNSwRUD-56" value="" style="shape=image;verticalLabelPosition=bottom;labelBackgroundColor=default;verticalAlign=top;imageAspect=0;image=https://broadbandlibrary.com/wp-content/uploads/2022/08/Figure.7-768x239.jpg;clipPath=inset(0% 56.33% 0% 14%);" parent="1" vertex="1">
          <mxGeometry x="3110" y="-1510" width="520" height="269" as="geometry" />
        </mxCell>
        <mxCell id="6O3QmPoWlT5Kj7B08mh7-1" value="Inception2D Block Detail" style="whiteSpace=wrap;strokeWidth=2;verticalAlign=top;fillColor=none;strokeColor=none;container=0;" parent="1" vertex="1">
          <mxGeometry x="40" y="-1060" width="712" height="850" as="geometry" />
        </mxCell>
        <mxCell id="6O3QmPoWlT5Kj7B08mh7-9" value="Inception1D Block Detail" style="whiteSpace=wrap;strokeWidth=2;verticalAlign=top;fillColor=none;strokeColor=none;container=0;" parent="1" vertex="1">
          <mxGeometry x="930" y="-1040" width="684" height="840" as="geometry" />
        </mxCell>
        <mxCell id="6O3QmPoWlT5Kj7B08mh7-17" value="" style="whiteSpace=wrap;strokeWidth=2;verticalAlign=top;fillColor=none;strokeColor=default;container=0;dashed=1;" parent="1" vertex="1">
          <mxGeometry x="2340" y="-680" width="1480" height="1490" as="geometry" />
        </mxCell>
        <mxCell id="6O3QmPoWlT5Kj7B08mh7-183" value="" style="shape=image;verticalLabelPosition=bottom;labelBackgroundColor=default;verticalAlign=top;imageAspect=0;image=https://broadbandlibrary.com/wp-content/uploads/2022/08/Figure.7-768x239.jpg;clipPath=inset(0% 0% 0% 14%);" parent="1" vertex="1">
          <mxGeometry x="2715.5" y="-1999" width="1124.5" height="269" as="geometry" />
        </mxCell>
        <mxCell id="6O3QmPoWlT5Kj7B08mh7-184" value="" style="rounded=0;whiteSpace=wrap;html=1;fillColor=none;strokeColor=#000000;strokeWidth=4;" parent="1" vertex="1">
          <mxGeometry x="2715.5" y="-1999" width="250" height="270" as="geometry" />
        </mxCell>
        <mxCell id="6O3QmPoWlT5Kj7B08mh7-185" value="" style="rounded=0;whiteSpace=wrap;html=1;fillColor=none;strokeColor=#000000;strokeWidth=4;" parent="1" vertex="1">
          <mxGeometry x="3251" y="-1998" width="250" height="270" as="geometry" />
        </mxCell>
        <mxCell id="6O3QmPoWlT5Kj7B08mh7-186" value="&lt;font style=&quot;font-size: 17px;&quot;&gt;1024&lt;/font&gt;" style="text;html=1;align=center;verticalAlign=middle;whiteSpace=wrap;rounded=0;" parent="1" vertex="1">
          <mxGeometry x="2818" y="-2049" width="60" height="30" as="geometry" />
        </mxCell>
        <mxCell id="6O3QmPoWlT5Kj7B08mh7-199" style="edgeStyle=orthogonalEdgeStyle;rounded=0;orthogonalLoop=1;jettySize=auto;html=1;exitX=0.5;exitY=1;exitDx=0;exitDy=0;entryX=0.5;entryY=0;entryDx=0;entryDy=0;curved=1;" parent="1" source="6O3QmPoWlT5Kj7B08mh7-18" target="6O3QmPoWlT5Kj7B08mh7-28" edge="1">
          <mxGeometry relative="1" as="geometry" />
        </mxCell>
        <mxCell id="6O3QmPoWlT5Kj7B08mh7-18" value="Spatial Stream (2D)" style="whiteSpace=wrap;strokeWidth=2;verticalAlign=top;fontSize=20;fillColor=#d5e8d4;strokeColor=#82b366;" parent="1" vertex="1">
          <mxGeometry x="3224.495" y="-262.4605263157895" width="523" height="760.6074493927125" as="geometry" />
        </mxCell>
        <mxCell id="6O3QmPoWlT5Kj7B08mh7-210" style="edgeStyle=orthogonalEdgeStyle;rounded=0;orthogonalLoop=1;jettySize=auto;html=1;exitX=0.5;exitY=1;exitDx=0;exitDy=0;entryX=0.5;entryY=0;entryDx=0;entryDy=0;" parent="6O3QmPoWlT5Kj7B08mh7-18" source="6O3QmPoWlT5Kj7B08mh7-19" target="6O3QmPoWlT5Kj7B08mh7-20" edge="1">
          <mxGeometry relative="1" as="geometry" />
        </mxCell>
        <mxCell id="6O3QmPoWlT5Kj7B08mh7-19" value="Conv2d(1→32, kernel=3)&#xa;            BatchNorm&#xa;            ReLU&#xa;            MaxPool2d" style="whiteSpace=wrap;strokeWidth=2;fontSize=20;" parent="6O3QmPoWlT5Kj7B08mh7-18" vertex="1">
          <mxGeometry x="130.05" y="58.43" width="262.9" height="121.57" as="geometry" />
        </mxCell>
        <mxCell id="6O3QmPoWlT5Kj7B08mh7-211" style="edgeStyle=orthogonalEdgeStyle;rounded=0;orthogonalLoop=1;jettySize=auto;html=1;exitX=0.5;exitY=1;exitDx=0;exitDy=0;entryX=0.5;entryY=0;entryDx=0;entryDy=0;" parent="6O3QmPoWlT5Kj7B08mh7-18" source="6O3QmPoWlT5Kj7B08mh7-20" target="6O3QmPoWlT5Kj7B08mh7-21" edge="1">
          <mxGeometry relative="1" as="geometry" />
        </mxCell>
        <mxCell id="6O3QmPoWlT5Kj7B08mh7-20" value="Inception2d Block" style="whiteSpace=wrap;strokeWidth=2;fontSize=20;" parent="6O3QmPoWlT5Kj7B08mh7-18" vertex="1">
          <mxGeometry x="155.935" y="215.46052631578948" width="211.13" height="74.57" as="geometry" />
        </mxCell>
        <mxCell id="6O3QmPoWlT5Kj7B08mh7-212" style="edgeStyle=orthogonalEdgeStyle;rounded=0;orthogonalLoop=1;jettySize=auto;html=1;exitX=0.5;exitY=1;exitDx=0;exitDy=0;entryX=0.5;entryY=0;entryDx=0;entryDy=0;" parent="6O3QmPoWlT5Kj7B08mh7-18" source="6O3QmPoWlT5Kj7B08mh7-21" target="6O3QmPoWlT5Kj7B08mh7-22" edge="1">
          <mxGeometry relative="1" as="geometry" />
        </mxCell>
        <mxCell id="6O3QmPoWlT5Kj7B08mh7-21" value="Inception2d Block" style="whiteSpace=wrap;strokeWidth=2;fontSize=20;" parent="6O3QmPoWlT5Kj7B08mh7-18" vertex="1">
          <mxGeometry x="151.97" y="349.4605263157895" width="219.06" height="72.65" as="geometry" />
        </mxCell>
        <mxCell id="6O3QmPoWlT5Kj7B08mh7-213" style="edgeStyle=orthogonalEdgeStyle;rounded=0;orthogonalLoop=1;jettySize=auto;html=1;exitX=0.5;exitY=1;exitDx=0;exitDy=0;entryX=0.5;entryY=0;entryDx=0;entryDy=0;" parent="6O3QmPoWlT5Kj7B08mh7-18" source="6O3QmPoWlT5Kj7B08mh7-22" target="6O3QmPoWlT5Kj7B08mh7-23" edge="1">
          <mxGeometry relative="1" as="geometry" />
        </mxCell>
        <mxCell id="6O3QmPoWlT5Kj7B08mh7-22" value="AdaptiveAvgPool2d(1)" style="whiteSpace=wrap;strokeWidth=2;fontSize=20;" parent="6O3QmPoWlT5Kj7B08mh7-18" vertex="1">
          <mxGeometry x="134.025" y="477.4605263157895" width="254.95" height="82.4" as="geometry" />
        </mxCell>
        <mxCell id="6O3QmPoWlT5Kj7B08mh7-23" value="FC: 32→64" style="whiteSpace=wrap;strokeWidth=2;fontSize=20;" parent="6O3QmPoWlT5Kj7B08mh7-18" vertex="1">
          <mxGeometry x="158.5" y="622.4615789473684" width="206" height="58.43454790823211" as="geometry" />
        </mxCell>
        <mxCell id="6O3QmPoWlT5Kj7B08mh7-28" value="Concat" style="whiteSpace=wrap;strokeWidth=2;fontSize=20;" parent="1" vertex="1">
          <mxGeometry x="3035" y="585" width="110" height="65" as="geometry" />
        </mxCell>
        <mxCell id="6O3QmPoWlT5Kj7B08mh7-29" value="Classifier&#xa;        FC: 128→4" style="whiteSpace=wrap;strokeWidth=2;fontSize=20;" parent="1" vertex="1">
          <mxGeometry x="3021" y="690" width="138" height="90" as="geometry" />
        </mxCell>
        <mxCell id="6O3QmPoWlT5Kj7B08mh7-30" value="Temporal Input&#xa;        (N, 1, 1024)" style="shape=cylinder3;boundedLbl=1;backgroundOutline=1;size=10;strokeWidth=2;whiteSpace=wrap;fontSize=20;fillColor=#dae8fc;strokeColor=#6c8ebf;" parent="1" vertex="1">
          <mxGeometry x="2719.5" y="-610.0031914893617" width="123" height="230.31914893617025" as="geometry" />
        </mxCell>
        <mxCell id="6O3QmPoWlT5Kj7B08mh7-197" style="edgeStyle=orthogonalEdgeStyle;rounded=0;orthogonalLoop=1;jettySize=auto;html=1;entryX=0.5;entryY=0;entryDx=0;entryDy=0;exitX=0.5;exitY=1;exitDx=0;exitDy=0;elbow=vertical;curved=1;" parent="1" source="6O3QmPoWlT5Kj7B08mh7-31" target="6O3QmPoWlT5Kj7B08mh7-28" edge="1">
          <mxGeometry relative="1" as="geometry" />
        </mxCell>
        <mxCell id="6O3QmPoWlT5Kj7B08mh7-31" value="Temporal Stream (1D)" style="whiteSpace=wrap;strokeWidth=2;verticalAlign=top;fontSize=20;fillColor=#dae8fc;strokeColor=#6c8ebf;" parent="1" vertex="1">
          <mxGeometry x="2441.5" y="-279.5143454790824" width="679" height="794.7098515519567" as="geometry" />
        </mxCell>
        <mxCell id="6O3QmPoWlT5Kj7B08mh7-203" style="edgeStyle=orthogonalEdgeStyle;rounded=0;orthogonalLoop=1;jettySize=auto;html=1;exitX=0.5;exitY=1;exitDx=0;exitDy=0;entryX=0.5;entryY=0;entryDx=0;entryDy=0;" parent="6O3QmPoWlT5Kj7B08mh7-31" source="6O3QmPoWlT5Kj7B08mh7-32" target="6O3QmPoWlT5Kj7B08mh7-33" edge="1">
          <mxGeometry relative="1" as="geometry" />
        </mxCell>
        <mxCell id="6O3QmPoWlT5Kj7B08mh7-32" value="Conv1d(1→32, kernel=7, stride=2)&#xa;            BatchNorm&#xa;            ReLU&#xa;            MaxPool1d" style="whiteSpace=wrap;strokeWidth=2;fontSize=20;" parent="6O3QmPoWlT5Kj7B08mh7-31" vertex="1">
          <mxGeometry x="142.25" y="53.53" width="394.5" height="120.85" as="geometry" />
        </mxCell>
        <mxCell id="6O3QmPoWlT5Kj7B08mh7-204" style="edgeStyle=orthogonalEdgeStyle;rounded=0;orthogonalLoop=1;jettySize=auto;html=1;exitX=0.5;exitY=1;exitDx=0;exitDy=0;entryX=0.5;entryY=0;entryDx=0;entryDy=0;" parent="6O3QmPoWlT5Kj7B08mh7-31" source="6O3QmPoWlT5Kj7B08mh7-33" target="6O3QmPoWlT5Kj7B08mh7-34" edge="1">
          <mxGeometry relative="1" as="geometry" />
        </mxCell>
        <mxCell id="6O3QmPoWlT5Kj7B08mh7-33" value="Inception1D Block" style="whiteSpace=wrap;strokeWidth=2;fontSize=20;" parent="6O3QmPoWlT5Kj7B08mh7-31" vertex="1">
          <mxGeometry x="185.5" y="199.5143454790824" width="308" height="86.85" as="geometry" />
        </mxCell>
        <mxCell id="6O3QmPoWlT5Kj7B08mh7-205" style="edgeStyle=orthogonalEdgeStyle;rounded=0;orthogonalLoop=1;jettySize=auto;html=1;exitX=0.5;exitY=1;exitDx=0;exitDy=0;entryX=0.5;entryY=0;entryDx=0;entryDy=0;" parent="6O3QmPoWlT5Kj7B08mh7-31" source="6O3QmPoWlT5Kj7B08mh7-34" target="6O3QmPoWlT5Kj7B08mh7-35" edge="1">
          <mxGeometry relative="1" as="geometry" />
        </mxCell>
        <mxCell id="6O3QmPoWlT5Kj7B08mh7-34" value="MaxPool1d" style="whiteSpace=wrap;strokeWidth=2;fontSize=20;" parent="6O3QmPoWlT5Kj7B08mh7-31" vertex="1">
          <mxGeometry x="189" y="311.5143454790824" width="301" height="80.85" as="geometry" />
        </mxCell>
        <mxCell id="6O3QmPoWlT5Kj7B08mh7-207" style="edgeStyle=orthogonalEdgeStyle;rounded=0;orthogonalLoop=1;jettySize=auto;html=1;exitX=0.5;exitY=1;exitDx=0;exitDy=0;entryX=0.5;entryY=0;entryDx=0;entryDy=0;" parent="6O3QmPoWlT5Kj7B08mh7-31" source="6O3QmPoWlT5Kj7B08mh7-36" target="6O3QmPoWlT5Kj7B08mh7-37" edge="1">
          <mxGeometry relative="1" as="geometry" />
        </mxCell>
        <mxCell id="6O3QmPoWlT5Kj7B08mh7-36" value="AdaptiveAvgPool1d(1)" style="whiteSpace=wrap;strokeWidth=2;fontSize=20;" parent="6O3QmPoWlT5Kj7B08mh7-31" vertex="1">
          <mxGeometry x="190.5" y="549.5143454790824" width="298" height="110.85" as="geometry" />
        </mxCell>
        <mxCell id="6O3QmPoWlT5Kj7B08mh7-206" style="edgeStyle=orthogonalEdgeStyle;rounded=0;orthogonalLoop=1;jettySize=auto;html=1;exitX=0.5;exitY=1;exitDx=0;exitDy=0;entryX=0.5;entryY=0;entryDx=0;entryDy=0;" parent="6O3QmPoWlT5Kj7B08mh7-31" source="6O3QmPoWlT5Kj7B08mh7-35" target="6O3QmPoWlT5Kj7B08mh7-36" edge="1">
          <mxGeometry relative="1" as="geometry" />
        </mxCell>
        <mxCell id="6O3QmPoWlT5Kj7B08mh7-35" value="Inception1D Block" style="whiteSpace=wrap;strokeWidth=2;fontSize=20;" parent="6O3QmPoWlT5Kj7B08mh7-31" vertex="1">
          <mxGeometry x="190.5" y="419.5143454790824" width="298" height="100.85" as="geometry" />
        </mxCell>
        <mxCell id="6O3QmPoWlT5Kj7B08mh7-37" value="FC: 288→64" style="whiteSpace=wrap;strokeWidth=2;fontSize=20;" parent="6O3QmPoWlT5Kj7B08mh7-31" vertex="1">
          <mxGeometry x="205.5" y="689.51" width="268" height="60.84" as="geometry" />
        </mxCell>
        <mxCell id="6O3QmPoWlT5Kj7B08mh7-43" value="Spatial Input&#xa;        (N, 1, 32, 32)" style="shape=cylinder3;boundedLbl=1;backgroundOutline=1;size=10;strokeWidth=2;whiteSpace=wrap;fontSize=20;fillColor=#d5e8d4;strokeColor=#82b366;" parent="1" vertex="1">
          <mxGeometry x="3417.49" y="-610" width="137" height="223.41" as="geometry" />
        </mxCell>
        <mxCell id="6O3QmPoWlT5Kj7B08mh7-44" value="" style="curved=1;startArrow=none;endArrow=block;exitX=0.5;exitY=0.99;entryX=0.5;entryY=0;rounded=0;" parent="1" source="6O3QmPoWlT5Kj7B08mh7-28" target="6O3QmPoWlT5Kj7B08mh7-29" edge="1">
          <mxGeometry relative="1" as="geometry">
            <Array as="points" />
          </mxGeometry>
        </mxCell>
        <mxCell id="6O3QmPoWlT5Kj7B08mh7-45" value="" style="curved=1;startArrow=none;endArrow=block;exitX=0.5;exitY=1;entryX=0.5;entryY=0;rounded=0;" parent="1" source="6O3QmPoWlT5Kj7B08mh7-30" target="6O3QmPoWlT5Kj7B08mh7-31" edge="1">
          <mxGeometry relative="1" as="geometry">
            <Array as="points" />
          </mxGeometry>
        </mxCell>
        <mxCell id="6O3QmPoWlT5Kj7B08mh7-46" value="" style="curved=1;startArrow=none;endArrow=block;exitX=0.5;exitY=1;entryX=0.5;entryY=0;rounded=0;" parent="1" source="6O3QmPoWlT5Kj7B08mh7-43" target="6O3QmPoWlT5Kj7B08mh7-18" edge="1">
          <mxGeometry relative="1" as="geometry">
            <Array as="points" />
          </mxGeometry>
        </mxCell>
        <mxCell id="6O3QmPoWlT5Kj7B08mh7-200" value="&lt;font style=&quot;font-size: 30px;&quot;&gt;&lt;b&gt;DualStreamGoogleNet&lt;/b&gt;&lt;/font&gt;" style="text;html=1;align=center;verticalAlign=middle;whiteSpace=wrap;rounded=0;" parent="1" vertex="1">
          <mxGeometry x="2350" y="-680" width="340" height="150" as="geometry" />
        </mxCell>
        <mxCell id="6O3QmPoWlT5Kj7B08mh7-102" value="" style="group" parent="1" vertex="1" connectable="0">
          <mxGeometry x="550" y="-870.0026415094339" width="120" height="374.05660377358487" as="geometry" />
        </mxCell>
        <mxCell id="6O3QmPoWlT5Kj7B08mh7-84" value="&lt;div&gt;BatchNorm&lt;/div&gt;" style="rounded=0;whiteSpace=wrap;html=1;" parent="6O3QmPoWlT5Kj7B08mh7-102" vertex="1">
          <mxGeometry y="240.00566037735848" width="120" height="73.58490566037736" as="geometry" />
        </mxCell>
        <mxCell id="6O3QmPoWlT5Kj7B08mh7-82" value="AvgPool2d" style="rounded=0;whiteSpace=wrap;html=1;" parent="6O3QmPoWlT5Kj7B08mh7-102" vertex="1">
          <mxGeometry width="120" height="73.58490566037736" as="geometry" />
        </mxCell>
        <mxCell id="6O3QmPoWlT5Kj7B08mh7-104" value="" style="group" parent="1" vertex="1" connectable="0">
          <mxGeometry x="338.5" y="-870.0009433962264" width="120" height="637.7358490566038" as="geometry" />
        </mxCell>
        <mxCell id="6O3QmPoWlT5Kj7B08mh7-3" value="Concat" style="whiteSpace=wrap;strokeWidth=2;fillColor=#dae8fc;strokeColor=#6c8ebf;" parent="6O3QmPoWlT5Kj7B08mh7-104" vertex="1">
          <mxGeometry x="4.5" y="565.4877358490567" width="111" height="72.24811320754716" as="geometry" />
        </mxCell>
        <mxCell id="6O3QmPoWlT5Kj7B08mh7-103" value="" style="group" parent="6O3QmPoWlT5Kj7B08mh7-104" vertex="1" connectable="0">
          <mxGeometry width="120" height="453.77358490566036" as="geometry" />
        </mxCell>
        <mxCell id="6O3QmPoWlT5Kj7B08mh7-65" value="&lt;div&gt;ReLU&lt;/div&gt;" style="rounded=0;whiteSpace=wrap;html=1;" parent="6O3QmPoWlT5Kj7B08mh7-103" vertex="1">
          <mxGeometry y="380.188679245283" width="120" height="73.58490566037736" as="geometry" />
        </mxCell>
        <mxCell id="6O3QmPoWlT5Kj7B08mh7-64" value="&lt;div&gt;BatchNorm&lt;/div&gt;" style="rounded=0;whiteSpace=wrap;html=1;" parent="6O3QmPoWlT5Kj7B08mh7-103" vertex="1">
          <mxGeometry y="285.75471698113205" width="120" height="73.58490566037736" as="geometry" />
        </mxCell>
        <mxCell id="6O3QmPoWlT5Kj7B08mh7-63" value="&lt;div&gt;1x1&lt;/div&gt;Conv2d" style="rounded=0;whiteSpace=wrap;html=1;" parent="6O3QmPoWlT5Kj7B08mh7-103" vertex="1">
          <mxGeometry y="190.0943396226415" width="120" height="73.58490566037736" as="geometry" />
        </mxCell>
        <mxCell id="6O3QmPoWlT5Kj7B08mh7-62" value="&lt;div&gt;3x3&amp;nbsp;&lt;/div&gt;SeparableConv2d&amp;nbsp;" style="rounded=0;whiteSpace=wrap;html=1;" parent="6O3QmPoWlT5Kj7B08mh7-103" vertex="1">
          <mxGeometry y="95.66037735849056" width="120" height="73.58490566037736" as="geometry" />
        </mxCell>
        <mxCell id="6O3QmPoWlT5Kj7B08mh7-61" value="&lt;div&gt;1x1&lt;/div&gt;Conv2d" style="rounded=0;whiteSpace=wrap;html=1;" parent="6O3QmPoWlT5Kj7B08mh7-103" vertex="1">
          <mxGeometry width="120" height="73.58490566037736" as="geometry" />
        </mxCell>
        <mxCell id="6O3QmPoWlT5Kj7B08mh7-100" style="edgeStyle=orthogonalEdgeStyle;rounded=0;orthogonalLoop=1;jettySize=auto;html=1;exitX=0.5;exitY=1;exitDx=0;exitDy=0;entryX=0.5;entryY=0;entryDx=0;entryDy=0;" parent="6O3QmPoWlT5Kj7B08mh7-103" source="6O3QmPoWlT5Kj7B08mh7-64" target="6O3QmPoWlT5Kj7B08mh7-65" edge="1">
          <mxGeometry relative="1" as="geometry" />
        </mxCell>
        <mxCell id="6O3QmPoWlT5Kj7B08mh7-101" style="edgeStyle=orthogonalEdgeStyle;rounded=0;orthogonalLoop=1;jettySize=auto;html=1;exitX=0.5;exitY=1;exitDx=0;exitDy=0;entryX=0.5;entryY=0;entryDx=0;entryDy=0;" parent="6O3QmPoWlT5Kj7B08mh7-103" source="6O3QmPoWlT5Kj7B08mh7-63" target="6O3QmPoWlT5Kj7B08mh7-64" edge="1">
          <mxGeometry relative="1" as="geometry" />
        </mxCell>
        <mxCell id="6O3QmPoWlT5Kj7B08mh7-91" style="edgeStyle=orthogonalEdgeStyle;rounded=0;orthogonalLoop=1;jettySize=auto;html=1;exitX=0.5;exitY=1;exitDx=0;exitDy=0;entryX=0.5;entryY=0;entryDx=0;entryDy=0;" parent="6O3QmPoWlT5Kj7B08mh7-103" source="6O3QmPoWlT5Kj7B08mh7-62" target="6O3QmPoWlT5Kj7B08mh7-63" edge="1">
          <mxGeometry relative="1" as="geometry" />
        </mxCell>
        <mxCell id="6O3QmPoWlT5Kj7B08mh7-99" style="edgeStyle=orthogonalEdgeStyle;rounded=0;orthogonalLoop=1;jettySize=auto;html=1;exitX=0.5;exitY=1;exitDx=0;exitDy=0;entryX=0.5;entryY=0;entryDx=0;entryDy=0;" parent="6O3QmPoWlT5Kj7B08mh7-103" source="6O3QmPoWlT5Kj7B08mh7-61" target="6O3QmPoWlT5Kj7B08mh7-62" edge="1">
          <mxGeometry relative="1" as="geometry" />
        </mxCell>
        <mxCell id="6O3QmPoWlT5Kj7B08mh7-7" value="" style="curved=1;startArrow=none;endArrow=block;exitX=0.5;exitY=1;entryX=0.5;entryY=-0.01;rounded=0;exitDx=0;exitDy=0;" parent="6O3QmPoWlT5Kj7B08mh7-104" source="6O3QmPoWlT5Kj7B08mh7-65" target="6O3QmPoWlT5Kj7B08mh7-3" edge="1">
          <mxGeometry relative="1" as="geometry">
            <Array as="points" />
            <mxPoint x="60.5" y="399.89697514225827" as="sourcePoint" />
          </mxGeometry>
        </mxCell>
        <mxCell id="6O3QmPoWlT5Kj7B08mh7-49" value="&lt;div&gt;1x1&lt;/div&gt;Conv2d" style="rounded=0;whiteSpace=wrap;html=1;movable=1;resizable=1;rotatable=1;deletable=1;editable=1;locked=0;connectable=1;" parent="1" vertex="1">
          <mxGeometry x="120" y="-870.0018867924529" width="120" height="73.58490566037736" as="geometry" />
        </mxCell>
        <mxCell id="6O3QmPoWlT5Kj7B08mh7-138" style="edgeStyle=orthogonalEdgeStyle;rounded=0;orthogonalLoop=1;jettySize=auto;html=1;entryX=0;entryY=0.5;entryDx=0;entryDy=0;exitX=0.5;exitY=1;exitDx=0;exitDy=0;curved=1;" parent="1" source="6O3QmPoWlT5Kj7B08mh7-60" target="6O3QmPoWlT5Kj7B08mh7-3" edge="1">
          <mxGeometry relative="1" as="geometry" />
        </mxCell>
        <mxCell id="6O3QmPoWlT5Kj7B08mh7-60" value="&lt;div&gt;ReLU&lt;/div&gt;" style="rounded=0;whiteSpace=wrap;html=1;movable=1;resizable=1;rotatable=1;deletable=1;editable=1;locked=0;connectable=1;" parent="1" vertex="1">
          <mxGeometry x="120" y="-489.9992452830189" width="120" height="73.58490566037736" as="geometry" />
        </mxCell>
        <mxCell id="6O3QmPoWlT5Kj7B08mh7-88" style="edgeStyle=orthogonalEdgeStyle;rounded=0;orthogonalLoop=1;jettySize=auto;html=1;entryX=0.5;entryY=0;entryDx=0;entryDy=0;" parent="1" source="6O3QmPoWlT5Kj7B08mh7-59" target="6O3QmPoWlT5Kj7B08mh7-60" edge="1">
          <mxGeometry relative="1" as="geometry" />
        </mxCell>
        <mxCell id="6O3QmPoWlT5Kj7B08mh7-59" value="&lt;div&gt;BatchNorm&lt;/div&gt;" style="rounded=0;whiteSpace=wrap;html=1;movable=1;resizable=1;rotatable=1;deletable=1;editable=1;locked=0;connectable=1;" parent="1" vertex="1">
          <mxGeometry x="120" y="-709.9973584905661" width="120" height="73.58490566037736" as="geometry" />
        </mxCell>
        <mxCell id="6O3QmPoWlT5Kj7B08mh7-89" style="edgeStyle=orthogonalEdgeStyle;rounded=0;orthogonalLoop=1;jettySize=auto;html=1;entryX=0.5;entryY=0;entryDx=0;entryDy=0;" parent="1" source="6O3QmPoWlT5Kj7B08mh7-49" target="6O3QmPoWlT5Kj7B08mh7-59" edge="1">
          <mxGeometry relative="1" as="geometry" />
        </mxCell>
        <mxCell id="6O3QmPoWlT5Kj7B08mh7-135" style="edgeStyle=orthogonalEdgeStyle;rounded=0;orthogonalLoop=1;jettySize=auto;html=1;exitX=0.5;exitY=1;exitDx=0;exitDy=0;entryX=0.5;entryY=0;entryDx=0;entryDy=0;" parent="1" source="6O3QmPoWlT5Kj7B08mh7-134" target="6O3QmPoWlT5Kj7B08mh7-61" edge="1">
          <mxGeometry relative="1" as="geometry" />
        </mxCell>
        <mxCell id="6O3QmPoWlT5Kj7B08mh7-136" style="edgeStyle=orthogonalEdgeStyle;rounded=0;orthogonalLoop=1;jettySize=auto;html=1;entryX=0.5;entryY=0;entryDx=0;entryDy=0;curved=1;" parent="1" source="6O3QmPoWlT5Kj7B08mh7-134" target="6O3QmPoWlT5Kj7B08mh7-49" edge="1">
          <mxGeometry relative="1" as="geometry" />
        </mxCell>
        <mxCell id="6O3QmPoWlT5Kj7B08mh7-137" style="edgeStyle=orthogonalEdgeStyle;rounded=0;orthogonalLoop=1;jettySize=auto;html=1;entryX=0.5;entryY=0;entryDx=0;entryDy=0;curved=1;" parent="1" source="6O3QmPoWlT5Kj7B08mh7-134" target="6O3QmPoWlT5Kj7B08mh7-82" edge="1">
          <mxGeometry relative="1" as="geometry" />
        </mxCell>
        <mxCell id="6O3QmPoWlT5Kj7B08mh7-134" value="input" style="whiteSpace=wrap;strokeWidth=2;fillColor=#dae8fc;strokeColor=#6c8ebf;" parent="1" vertex="1">
          <mxGeometry x="343" y="-1000" width="111" height="58.91" as="geometry" />
        </mxCell>
        <mxCell id="6O3QmPoWlT5Kj7B08mh7-139" style="edgeStyle=orthogonalEdgeStyle;rounded=0;orthogonalLoop=1;jettySize=auto;html=1;exitX=0.5;exitY=1;exitDx=0;exitDy=0;entryX=1;entryY=0.5;entryDx=0;entryDy=0;curved=1;" parent="1" source="6O3QmPoWlT5Kj7B08mh7-85" target="6O3QmPoWlT5Kj7B08mh7-3" edge="1">
          <mxGeometry relative="1" as="geometry" />
        </mxCell>
        <mxCell id="6O3QmPoWlT5Kj7B08mh7-85" value="&lt;div&gt;ReLU&lt;/div&gt;" style="rounded=0;whiteSpace=wrap;html=1;" parent="1" vertex="1">
          <mxGeometry x="550" y="-495.9509433962264" width="120" height="73.58490566037736" as="geometry" />
        </mxCell>
        <mxCell id="6O3QmPoWlT5Kj7B08mh7-98" style="edgeStyle=orthogonalEdgeStyle;rounded=0;orthogonalLoop=1;jettySize=auto;html=1;exitX=0.5;exitY=1;exitDx=0;exitDy=0;entryX=0.5;entryY=0;entryDx=0;entryDy=0;" parent="1" source="6O3QmPoWlT5Kj7B08mh7-84" target="6O3QmPoWlT5Kj7B08mh7-85" edge="1">
          <mxGeometry relative="1" as="geometry" />
        </mxCell>
        <mxCell id="6O3QmPoWlT5Kj7B08mh7-83" value="&lt;div&gt;1x1&lt;/div&gt;Conv2d" style="rounded=0;whiteSpace=wrap;html=1;" parent="1" vertex="1">
          <mxGeometry x="550" y="-749.9966037735849" width="120" height="73.58490566037736" as="geometry" />
        </mxCell>
        <mxCell id="6O3QmPoWlT5Kj7B08mh7-97" style="edgeStyle=orthogonalEdgeStyle;rounded=0;orthogonalLoop=1;jettySize=auto;html=1;exitX=0.5;exitY=1;exitDx=0;exitDy=0;entryX=0.5;entryY=0;entryDx=0;entryDy=0;" parent="1" source="6O3QmPoWlT5Kj7B08mh7-83" target="6O3QmPoWlT5Kj7B08mh7-84" edge="1">
          <mxGeometry relative="1" as="geometry" />
        </mxCell>
        <mxCell id="6O3QmPoWlT5Kj7B08mh7-94" style="edgeStyle=orthogonalEdgeStyle;rounded=0;orthogonalLoop=1;jettySize=auto;html=1;entryX=0.5;entryY=0;entryDx=0;entryDy=0;" parent="1" source="6O3QmPoWlT5Kj7B08mh7-82" target="6O3QmPoWlT5Kj7B08mh7-83" edge="1">
          <mxGeometry relative="1" as="geometry" />
        </mxCell>
        <mxCell id="6O3QmPoWlT5Kj7B08mh7-11" value="Concat" style="whiteSpace=wrap;strokeWidth=2;fillColor=#dae8fc;strokeColor=#6c8ebf;" parent="1" vertex="1">
          <mxGeometry x="1223.5" y="-290.78999999999996" width="111" height="70.79" as="geometry" />
        </mxCell>
        <mxCell id="6O3QmPoWlT5Kj7B08mh7-16" value="" style="curved=1;startArrow=none;endArrow=block;exitX=0.5;exitY=1;entryX=1;entryY=0.5;rounded=0;edgeStyle=orthogonalEdgeStyle;entryDx=0;entryDy=0;" parent="1" source="6O3QmPoWlT5Kj7B08mh7-161" target="6O3QmPoWlT5Kj7B08mh7-11" edge="1">
          <mxGeometry relative="1" as="geometry">
            <mxPoint x="1510.5" y="-511.7460317460318" as="sourcePoint" />
          </mxGeometry>
        </mxCell>
        <mxCell id="6O3QmPoWlT5Kj7B08mh7-165" style="edgeStyle=orthogonalEdgeStyle;rounded=0;orthogonalLoop=1;jettySize=auto;html=1;exitX=0.5;exitY=1;exitDx=0;exitDy=0;entryX=0.5;entryY=0;entryDx=0;entryDy=0;" parent="1" source="6O3QmPoWlT5Kj7B08mh7-140" target="6O3QmPoWlT5Kj7B08mh7-152" edge="1">
          <mxGeometry relative="1" as="geometry" />
        </mxCell>
        <mxCell id="6O3QmPoWlT5Kj7B08mh7-166" style="edgeStyle=orthogonalEdgeStyle;rounded=0;orthogonalLoop=1;jettySize=auto;html=1;exitX=0;exitY=0.5;exitDx=0;exitDy=0;entryX=0.5;entryY=0;entryDx=0;entryDy=0;curved=1;" parent="1" source="6O3QmPoWlT5Kj7B08mh7-140" target="6O3QmPoWlT5Kj7B08mh7-144" edge="1">
          <mxGeometry relative="1" as="geometry" />
        </mxCell>
        <mxCell id="6O3QmPoWlT5Kj7B08mh7-167" style="edgeStyle=orthogonalEdgeStyle;rounded=0;orthogonalLoop=1;jettySize=auto;html=1;exitX=1;exitY=0.5;exitDx=0;exitDy=0;entryX=0.5;entryY=0;entryDx=0;entryDy=0;elbow=vertical;curved=1;" parent="1" source="6O3QmPoWlT5Kj7B08mh7-140" target="6O3QmPoWlT5Kj7B08mh7-160" edge="1">
          <mxGeometry relative="1" as="geometry" />
        </mxCell>
        <mxCell id="6O3QmPoWlT5Kj7B08mh7-140" value="input" style="whiteSpace=wrap;strokeWidth=2;fillColor=#dae8fc;strokeColor=#6c8ebf;" parent="1" vertex="1">
          <mxGeometry x="1225.25" y="-1000" width="111" height="58.91" as="geometry" />
        </mxCell>
        <mxCell id="6O3QmPoWlT5Kj7B08mh7-168" style="edgeStyle=orthogonalEdgeStyle;rounded=0;orthogonalLoop=1;jettySize=auto;html=1;exitX=0.5;exitY=1;exitDx=0;exitDy=0;entryX=0.5;entryY=0;entryDx=0;entryDy=0;" parent="1" source="6O3QmPoWlT5Kj7B08mh7-144" target="6O3QmPoWlT5Kj7B08mh7-146" edge="1">
          <mxGeometry relative="1" as="geometry" />
        </mxCell>
        <mxCell id="6O3QmPoWlT5Kj7B08mh7-144" value="&lt;div&gt;kernel_size = 1&lt;/div&gt;Conv1d" style="rounded=0;whiteSpace=wrap;html=1;movable=1;resizable=1;rotatable=1;deletable=1;editable=1;locked=0;connectable=1;" parent="1" vertex="1">
          <mxGeometry x="985.75" y="-840" width="120" height="73.58490566037736" as="geometry" />
        </mxCell>
        <mxCell id="6O3QmPoWlT5Kj7B08mh7-174" style="edgeStyle=orthogonalEdgeStyle;rounded=0;orthogonalLoop=1;jettySize=auto;html=1;exitX=0.5;exitY=1;exitDx=0;exitDy=0;entryX=0;entryY=0.5;entryDx=0;entryDy=0;curved=1;" parent="1" source="6O3QmPoWlT5Kj7B08mh7-145" target="6O3QmPoWlT5Kj7B08mh7-11" edge="1">
          <mxGeometry relative="1" as="geometry" />
        </mxCell>
        <mxCell id="6O3QmPoWlT5Kj7B08mh7-145" value="&lt;div&gt;ReLU&lt;/div&gt;" style="rounded=0;whiteSpace=wrap;html=1;movable=1;resizable=1;rotatable=1;deletable=1;editable=1;locked=0;connectable=1;" parent="1" vertex="1">
          <mxGeometry x="985.75" y="-459.8118867924529" width="120" height="73.58490566037736" as="geometry" />
        </mxCell>
        <mxCell id="6O3QmPoWlT5Kj7B08mh7-173" style="edgeStyle=orthogonalEdgeStyle;rounded=0;orthogonalLoop=1;jettySize=auto;html=1;exitX=0.5;exitY=1;exitDx=0;exitDy=0;entryX=0.5;entryY=0;entryDx=0;entryDy=0;" parent="1" source="6O3QmPoWlT5Kj7B08mh7-146" target="6O3QmPoWlT5Kj7B08mh7-145" edge="1">
          <mxGeometry relative="1" as="geometry" />
        </mxCell>
        <mxCell id="6O3QmPoWlT5Kj7B08mh7-146" value="&lt;div&gt;BatchNorm&lt;/div&gt;" style="rounded=0;whiteSpace=wrap;html=1;movable=1;resizable=1;rotatable=1;deletable=1;editable=1;locked=0;connectable=1;" parent="1" vertex="1">
          <mxGeometry x="985.75" y="-650" width="120" height="73.58490566037736" as="geometry" />
        </mxCell>
        <mxCell id="6O3QmPoWlT5Kj7B08mh7-147" value="" style="group" parent="1" vertex="1" connectable="0">
          <mxGeometry x="1220.75" y="-840" width="120" height="453.77358490566036" as="geometry" />
        </mxCell>
        <mxCell id="6O3QmPoWlT5Kj7B08mh7-148" value="&lt;div&gt;ReLU&lt;/div&gt;" style="rounded=0;whiteSpace=wrap;html=1;" parent="6O3QmPoWlT5Kj7B08mh7-147" vertex="1">
          <mxGeometry y="380.188679245283" width="120" height="73.58490566037736" as="geometry" />
        </mxCell>
        <mxCell id="6O3QmPoWlT5Kj7B08mh7-149" value="&lt;div&gt;BatchNorm&lt;/div&gt;" style="rounded=0;whiteSpace=wrap;html=1;" parent="6O3QmPoWlT5Kj7B08mh7-147" vertex="1">
          <mxGeometry y="285.75471698113205" width="120" height="73.58490566037736" as="geometry" />
        </mxCell>
        <mxCell id="6O3QmPoWlT5Kj7B08mh7-150" value="&lt;div&gt;kernel_size = 1&lt;/div&gt;Conv1d" style="rounded=0;whiteSpace=wrap;html=1;" parent="6O3QmPoWlT5Kj7B08mh7-147" vertex="1">
          <mxGeometry y="190.0943396226415" width="120" height="73.58490566037736" as="geometry" />
        </mxCell>
        <mxCell id="6O3QmPoWlT5Kj7B08mh7-151" value="&lt;div&gt;kernel_size = 3&amp;nbsp;&lt;/div&gt;SeparableConv1d&amp;nbsp;" style="rounded=0;whiteSpace=wrap;html=1;" parent="6O3QmPoWlT5Kj7B08mh7-147" vertex="1">
          <mxGeometry y="95.66037735849056" width="120" height="73.58490566037736" as="geometry" />
        </mxCell>
        <mxCell id="6O3QmPoWlT5Kj7B08mh7-152" value="&lt;div&gt;kernel_size = 1&lt;/div&gt;Conv1d" style="rounded=0;whiteSpace=wrap;html=1;" parent="6O3QmPoWlT5Kj7B08mh7-147" vertex="1">
          <mxGeometry width="120" height="70" as="geometry" />
        </mxCell>
        <mxCell id="6O3QmPoWlT5Kj7B08mh7-153" style="edgeStyle=orthogonalEdgeStyle;rounded=0;orthogonalLoop=1;jettySize=auto;html=1;exitX=0.5;exitY=1;exitDx=0;exitDy=0;entryX=0.5;entryY=0;entryDx=0;entryDy=0;" parent="6O3QmPoWlT5Kj7B08mh7-147" source="6O3QmPoWlT5Kj7B08mh7-149" target="6O3QmPoWlT5Kj7B08mh7-148" edge="1">
          <mxGeometry relative="1" as="geometry" />
        </mxCell>
        <mxCell id="6O3QmPoWlT5Kj7B08mh7-154" style="edgeStyle=orthogonalEdgeStyle;rounded=0;orthogonalLoop=1;jettySize=auto;html=1;exitX=0.5;exitY=1;exitDx=0;exitDy=0;entryX=0.5;entryY=0;entryDx=0;entryDy=0;" parent="6O3QmPoWlT5Kj7B08mh7-147" source="6O3QmPoWlT5Kj7B08mh7-150" target="6O3QmPoWlT5Kj7B08mh7-149" edge="1">
          <mxGeometry relative="1" as="geometry" />
        </mxCell>
        <mxCell id="6O3QmPoWlT5Kj7B08mh7-155" style="edgeStyle=orthogonalEdgeStyle;rounded=0;orthogonalLoop=1;jettySize=auto;html=1;exitX=0.5;exitY=1;exitDx=0;exitDy=0;entryX=0.5;entryY=0;entryDx=0;entryDy=0;" parent="6O3QmPoWlT5Kj7B08mh7-147" source="6O3QmPoWlT5Kj7B08mh7-151" target="6O3QmPoWlT5Kj7B08mh7-150" edge="1">
          <mxGeometry relative="1" as="geometry" />
        </mxCell>
        <mxCell id="6O3QmPoWlT5Kj7B08mh7-156" style="edgeStyle=orthogonalEdgeStyle;rounded=0;orthogonalLoop=1;jettySize=auto;html=1;exitX=0.5;exitY=1;exitDx=0;exitDy=0;entryX=0.5;entryY=0;entryDx=0;entryDy=0;" parent="6O3QmPoWlT5Kj7B08mh7-147" source="6O3QmPoWlT5Kj7B08mh7-152" target="6O3QmPoWlT5Kj7B08mh7-151" edge="1">
          <mxGeometry relative="1" as="geometry" />
        </mxCell>
        <mxCell id="6O3QmPoWlT5Kj7B08mh7-157" value="" style="curved=1;startArrow=none;endArrow=block;exitX=0.5;exitY=1;entryX=0.5;entryY=0;rounded=0;exitDx=0;exitDy=0;entryDx=0;entryDy=0;" parent="1" source="6O3QmPoWlT5Kj7B08mh7-148" target="6O3QmPoWlT5Kj7B08mh7-11" edge="1">
          <mxGeometry relative="1" as="geometry">
            <Array as="points" />
            <mxPoint x="1279.5" y="-520.1030248577417" as="sourcePoint" />
            <mxPoint x="1279" y="-355" as="targetPoint" />
          </mxGeometry>
        </mxCell>
        <mxCell id="6O3QmPoWlT5Kj7B08mh7-171" style="edgeStyle=orthogonalEdgeStyle;rounded=0;orthogonalLoop=1;jettySize=auto;html=1;exitX=0.5;exitY=1;exitDx=0;exitDy=0;entryX=0.5;entryY=0;entryDx=0;entryDy=0;" parent="1" source="6O3QmPoWlT5Kj7B08mh7-162" target="6O3QmPoWlT5Kj7B08mh7-159" edge="1">
          <mxGeometry relative="1" as="geometry" />
        </mxCell>
        <mxCell id="6O3QmPoWlT5Kj7B08mh7-162" value="&lt;div&gt;kernel_size = 1&lt;/div&gt;&lt;div&gt;&lt;span style=&quot;background-color: transparent; color: light-dark(rgb(0, 0, 0), rgb(255, 255, 255));&quot;&gt;Conv1d&lt;/span&gt;&lt;/div&gt;" style="rounded=0;whiteSpace=wrap;html=1;" parent="1" vertex="1">
          <mxGeometry x="1452.25" y="-713" width="120" height="73.58490566037736" as="geometry" />
        </mxCell>
        <mxCell id="6O3QmPoWlT5Kj7B08mh7-161" value="&lt;div&gt;ReLU&lt;/div&gt;" style="rounded=0;whiteSpace=wrap;html=1;" parent="1" vertex="1">
          <mxGeometry x="1452.25" y="-459.5283018867925" width="120" height="73.58490566037736" as="geometry" />
        </mxCell>
        <mxCell id="6O3QmPoWlT5Kj7B08mh7-172" style="edgeStyle=orthogonalEdgeStyle;rounded=0;orthogonalLoop=1;jettySize=auto;html=1;exitX=0.5;exitY=1;exitDx=0;exitDy=0;entryX=0.5;entryY=0;entryDx=0;entryDy=0;" parent="1" source="6O3QmPoWlT5Kj7B08mh7-159" target="6O3QmPoWlT5Kj7B08mh7-161" edge="1">
          <mxGeometry relative="1" as="geometry" />
        </mxCell>
        <mxCell id="6O3QmPoWlT5Kj7B08mh7-159" value="&lt;div&gt;BatchNorm&lt;/div&gt;" style="rounded=0;whiteSpace=wrap;html=1;" parent="1" vertex="1">
          <mxGeometry x="1452.25" y="-586" width="120" height="73.58490566037736" as="geometry" />
        </mxCell>
        <mxCell id="6O3QmPoWlT5Kj7B08mh7-170" style="edgeStyle=orthogonalEdgeStyle;rounded=0;orthogonalLoop=1;jettySize=auto;html=1;exitX=0.5;exitY=1;exitDx=0;exitDy=0;entryX=0.5;entryY=0;entryDx=0;entryDy=0;" parent="1" source="6O3QmPoWlT5Kj7B08mh7-160" target="6O3QmPoWlT5Kj7B08mh7-162" edge="1">
          <mxGeometry relative="1" as="geometry" />
        </mxCell>
        <mxCell id="6O3QmPoWlT5Kj7B08mh7-160" value="AvgPool1d" style="rounded=0;whiteSpace=wrap;html=1;" parent="1" vertex="1">
          <mxGeometry x="1452.25" y="-840" width="120" height="73.58490566037736" as="geometry" />
        </mxCell>
        <mxCell id="frIAkInVryvBUzNSwRUD-1" value="" style="endArrow=none;html=1;rounded=0;" parent="1" edge="1">
          <mxGeometry width="50" height="50" relative="1" as="geometry">
            <mxPoint x="2714.5" y="-1999" as="sourcePoint" />
            <mxPoint x="2714.5" y="-2049" as="targetPoint" />
          </mxGeometry>
        </mxCell>
        <mxCell id="frIAkInVryvBUzNSwRUD-2" value="" style="endArrow=none;html=1;rounded=0;" parent="1" edge="1">
          <mxGeometry width="50" height="50" relative="1" as="geometry">
            <mxPoint x="3250" y="-1998" as="sourcePoint" />
            <mxPoint x="3250" y="-2048" as="targetPoint" />
          </mxGeometry>
        </mxCell>
        <mxCell id="frIAkInVryvBUzNSwRUD-4" value="" style="endArrow=classic;html=1;rounded=0;exitX=1;exitY=0.5;exitDx=0;exitDy=0;" parent="1" source="6O3QmPoWlT5Kj7B08mh7-186" edge="1">
          <mxGeometry width="50" height="50" relative="1" as="geometry">
            <mxPoint x="2885.5" y="-2032.5" as="sourcePoint" />
            <mxPoint x="2965.5" y="-2033.5" as="targetPoint" />
          </mxGeometry>
        </mxCell>
        <mxCell id="frIAkInVryvBUzNSwRUD-6" value="" style="endArrow=classic;html=1;rounded=0;" parent="1" edge="1">
          <mxGeometry width="50" height="50" relative="1" as="geometry">
            <mxPoint x="2815.5" y="-2032.5" as="sourcePoint" />
            <mxPoint x="2715.5" y="-2032.5" as="targetPoint" />
          </mxGeometry>
        </mxCell>
        <mxCell id="frIAkInVryvBUzNSwRUD-7" value="&lt;font style=&quot;font-size: 17px;&quot;&gt;1024&lt;/font&gt;" style="text;html=1;align=center;verticalAlign=middle;whiteSpace=wrap;rounded=0;" parent="1" vertex="1">
          <mxGeometry x="3353.5" y="-2049" width="60" height="30" as="geometry" />
        </mxCell>
        <mxCell id="frIAkInVryvBUzNSwRUD-8" value="" style="endArrow=none;html=1;rounded=0;" parent="1" edge="1">
          <mxGeometry width="50" height="50" relative="1" as="geometry">
            <mxPoint x="3250" y="-1999" as="sourcePoint" />
            <mxPoint x="3250" y="-2049" as="targetPoint" />
          </mxGeometry>
        </mxCell>
        <mxCell id="frIAkInVryvBUzNSwRUD-9" value="" style="endArrow=none;html=1;rounded=0;" parent="1" edge="1">
          <mxGeometry width="50" height="50" relative="1" as="geometry">
            <mxPoint x="3500" y="-1999" as="sourcePoint" />
            <mxPoint x="3500" y="-2049" as="targetPoint" />
          </mxGeometry>
        </mxCell>
        <mxCell id="frIAkInVryvBUzNSwRUD-10" value="" style="endArrow=classic;html=1;rounded=0;exitX=1;exitY=0.5;exitDx=0;exitDy=0;" parent="1" source="frIAkInVryvBUzNSwRUD-7" edge="1">
          <mxGeometry width="50" height="50" relative="1" as="geometry">
            <mxPoint x="3421" y="-2032.5" as="sourcePoint" />
            <mxPoint x="3501" y="-2033.5" as="targetPoint" />
          </mxGeometry>
        </mxCell>
        <mxCell id="frIAkInVryvBUzNSwRUD-11" value="" style="endArrow=classic;html=1;rounded=0;" parent="1" edge="1">
          <mxGeometry width="50" height="50" relative="1" as="geometry">
            <mxPoint x="3351" y="-2032.5" as="sourcePoint" />
            <mxPoint x="3251" y="-2032.5" as="targetPoint" />
          </mxGeometry>
        </mxCell>
        <mxCell id="frIAkInVryvBUzNSwRUD-12" value="" style="rounded=0;whiteSpace=wrap;html=1;strokeColor=none;" parent="1" vertex="1">
          <mxGeometry x="3300" y="-1090" width="315.5" height="280" as="geometry" />
        </mxCell>
        <mxCell id="frIAkInVryvBUzNSwRUD-14" value="" style="endArrow=none;html=1;rounded=0;exitX=0;exitY=0;exitDx=0;exitDy=0;" parent="1" source="frIAkInVryvBUzNSwRUD-12" edge="1">
          <mxGeometry width="50" height="50" relative="1" as="geometry">
            <mxPoint x="3300" y="-1090" as="sourcePoint" />
            <mxPoint x="3616" y="-1090" as="targetPoint" />
          </mxGeometry>
        </mxCell>
        <mxCell id="frIAkInVryvBUzNSwRUD-15" value="" style="endArrow=none;html=1;rounded=0;exitX=0;exitY=0;exitDx=0;exitDy=0;" parent="1" edge="1">
          <mxGeometry width="50" height="50" relative="1" as="geometry">
            <mxPoint x="3300" y="-1020" as="sourcePoint" />
            <mxPoint x="3616" y="-1020" as="targetPoint" />
          </mxGeometry>
        </mxCell>
        <mxCell id="frIAkInVryvBUzNSwRUD-16" value="" style="endArrow=none;html=1;rounded=0;exitX=0;exitY=0;exitDx=0;exitDy=0;" parent="1" edge="1">
          <mxGeometry width="50" height="50" relative="1" as="geometry">
            <mxPoint x="3300" y="-950" as="sourcePoint" />
            <mxPoint x="3616" y="-950" as="targetPoint" />
          </mxGeometry>
        </mxCell>
        <mxCell id="frIAkInVryvBUzNSwRUD-17" value="" style="endArrow=none;html=1;rounded=0;exitX=0;exitY=0;exitDx=0;exitDy=0;" parent="1" edge="1">
          <mxGeometry width="50" height="50" relative="1" as="geometry">
            <mxPoint x="3299.5" y="-880" as="sourcePoint" />
            <mxPoint x="3615.5" y="-880" as="targetPoint" />
          </mxGeometry>
        </mxCell>
        <mxCell id="frIAkInVryvBUzNSwRUD-18" value="" style="endArrow=none;html=1;rounded=0;exitX=0;exitY=0;exitDx=0;exitDy=0;" parent="1" edge="1">
          <mxGeometry width="50" height="50" relative="1" as="geometry">
            <mxPoint x="3300" y="-810" as="sourcePoint" />
            <mxPoint x="3616" y="-810" as="targetPoint" />
          </mxGeometry>
        </mxCell>
        <mxCell id="frIAkInVryvBUzNSwRUD-19" value="&lt;font style=&quot;font-size: 34px;&quot;&gt;......&lt;/font&gt;" style="text;html=1;align=center;verticalAlign=middle;whiteSpace=wrap;rounded=0;" parent="1" vertex="1">
          <mxGeometry x="3310" y="-1000" width="290" height="30" as="geometry" />
        </mxCell>
        <mxCell id="frIAkInVryvBUzNSwRUD-20" value="" style="ellipse;whiteSpace=wrap;html=1;aspect=fixed;fillColor=#000000;" parent="1" vertex="1">
          <mxGeometry x="3312" y="-1074" width="40" height="40" as="geometry" />
        </mxCell>
        <mxCell id="frIAkInVryvBUzNSwRUD-21" value="" style="endArrow=none;html=1;rounded=0;" parent="1" edge="1">
          <mxGeometry width="50" height="50" relative="1" as="geometry">
            <mxPoint x="3300" y="-1090" as="sourcePoint" />
            <mxPoint x="3300" y="-1140" as="targetPoint" />
          </mxGeometry>
        </mxCell>
        <mxCell id="frIAkInVryvBUzNSwRUD-22" value="&lt;font style=&quot;font-size: 17px;&quot;&gt;32&lt;/font&gt;" style="text;html=1;align=center;verticalAlign=middle;whiteSpace=wrap;rounded=0;" parent="1" vertex="1">
          <mxGeometry x="3427.75" y="-1139" width="60" height="30" as="geometry" />
        </mxCell>
        <mxCell id="frIAkInVryvBUzNSwRUD-23" value="" style="endArrow=none;html=1;rounded=0;" parent="1" edge="1">
          <mxGeometry width="50" height="50" relative="1" as="geometry">
            <mxPoint x="3300" y="-1091" as="sourcePoint" />
            <mxPoint x="3300" y="-1141" as="targetPoint" />
          </mxGeometry>
        </mxCell>
        <mxCell id="frIAkInVryvBUzNSwRUD-24" value="" style="endArrow=none;html=1;rounded=0;" parent="1" edge="1">
          <mxGeometry width="50" height="50" relative="1" as="geometry">
            <mxPoint x="3614.79" y="-1090" as="sourcePoint" />
            <mxPoint x="3614.79" y="-1140" as="targetPoint" />
          </mxGeometry>
        </mxCell>
        <mxCell id="frIAkInVryvBUzNSwRUD-25" value="" style="endArrow=classic;html=1;rounded=0;exitX=1;exitY=0.5;exitDx=0;exitDy=0;" parent="1" source="frIAkInVryvBUzNSwRUD-22" edge="1">
          <mxGeometry width="50" height="50" relative="1" as="geometry">
            <mxPoint x="3491.75" y="-1124" as="sourcePoint" />
            <mxPoint x="3614" y="-1124" as="targetPoint" />
          </mxGeometry>
        </mxCell>
        <mxCell id="frIAkInVryvBUzNSwRUD-26" value="" style="endArrow=classic;html=1;rounded=0;exitX=0;exitY=0.5;exitDx=0;exitDy=0;" parent="1" source="frIAkInVryvBUzNSwRUD-22" edge="1">
          <mxGeometry width="50" height="50" relative="1" as="geometry">
            <mxPoint x="3401" y="-1124.5" as="sourcePoint" />
            <mxPoint x="3301" y="-1124.5" as="targetPoint" />
          </mxGeometry>
        </mxCell>
        <mxCell id="frIAkInVryvBUzNSwRUD-28" value="" style="endArrow=none;html=1;rounded=0;" parent="1" edge="1">
          <mxGeometry width="50" height="50" relative="1" as="geometry">
            <mxPoint x="3615.5" y="-1090.71" as="sourcePoint" />
            <mxPoint x="3615.5" y="-1140.71" as="targetPoint" />
          </mxGeometry>
        </mxCell>
        <mxCell id="frIAkInVryvBUzNSwRUD-29" value="&lt;font style=&quot;font-size: 17px;&quot;&gt;32&lt;/font&gt;" style="text;html=1;align=center;verticalAlign=middle;whiteSpace=wrap;rounded=0;" parent="1" vertex="1">
          <mxGeometry x="3620" y="-980" width="60" height="30" as="geometry" />
        </mxCell>
        <mxCell id="frIAkInVryvBUzNSwRUD-30" value="" style="endArrow=none;html=1;rounded=0;exitX=1;exitY=0;exitDx=0;exitDy=0;" parent="1" source="frIAkInVryvBUzNSwRUD-12" edge="1">
          <mxGeometry width="50" height="50" relative="1" as="geometry">
            <mxPoint x="3615.5" y="-1091.71" as="sourcePoint" />
            <mxPoint x="3680" y="-1090" as="targetPoint" />
          </mxGeometry>
        </mxCell>
        <mxCell id="frIAkInVryvBUzNSwRUD-31" value="" style="endArrow=none;html=1;rounded=0;" parent="1" edge="1">
          <mxGeometry width="50" height="50" relative="1" as="geometry">
            <mxPoint x="3615.5" y="-810" as="sourcePoint" />
            <mxPoint x="3680" y="-810" as="targetPoint" />
          </mxGeometry>
        </mxCell>
        <mxCell id="frIAkInVryvBUzNSwRUD-32" value="" style="endArrow=classic;html=1;rounded=0;exitX=0.5;exitY=1;exitDx=0;exitDy=0;" parent="1" source="frIAkInVryvBUzNSwRUD-29" edge="1">
          <mxGeometry width="50" height="50" relative="1" as="geometry">
            <mxPoint x="3807.25" y="-1124.71" as="sourcePoint" />
            <mxPoint x="3650" y="-810" as="targetPoint" />
          </mxGeometry>
        </mxCell>
        <mxCell id="frIAkInVryvBUzNSwRUD-33" value="" style="endArrow=classic;html=1;rounded=0;exitX=0.5;exitY=0;exitDx=0;exitDy=0;" parent="1" source="frIAkInVryvBUzNSwRUD-29" edge="1">
          <mxGeometry width="50" height="50" relative="1" as="geometry">
            <mxPoint x="3716.5" y="-1125.21" as="sourcePoint" />
            <mxPoint x="3650" y="-1090" as="targetPoint" />
          </mxGeometry>
        </mxCell>
        <mxCell id="frIAkInVryvBUzNSwRUD-34" value="" style="ellipse;whiteSpace=wrap;html=1;aspect=fixed;fillColor=#000000;" parent="1" vertex="1">
          <mxGeometry x="3370" y="-1074" width="40" height="40" as="geometry" />
        </mxCell>
        <mxCell id="frIAkInVryvBUzNSwRUD-35" value="" style="ellipse;whiteSpace=wrap;html=1;aspect=fixed;fillColor=#000000;" parent="1" vertex="1">
          <mxGeometry x="3487.75" y="-1074" width="40" height="40" as="geometry" />
        </mxCell>
        <mxCell id="frIAkInVryvBUzNSwRUD-36" value="" style="ellipse;whiteSpace=wrap;html=1;aspect=fixed;fillColor=#000000;" parent="1" vertex="1">
          <mxGeometry x="3550" y="-1074" width="40" height="40" as="geometry" />
        </mxCell>
        <mxCell id="frIAkInVryvBUzNSwRUD-37" value="&lt;font style=&quot;font-size: 20px;&quot;&gt;......&lt;/font&gt;" style="text;html=1;align=center;verticalAlign=middle;whiteSpace=wrap;rounded=0;" parent="1" vertex="1">
          <mxGeometry x="3310" y="-1069" width="290" height="30" as="geometry" />
        </mxCell>
        <mxCell id="frIAkInVryvBUzNSwRUD-38" value="" style="ellipse;whiteSpace=wrap;html=1;aspect=fixed;fillColor=#000000;" parent="1" vertex="1">
          <mxGeometry x="3314" y="-930" width="40" height="40" as="geometry" />
        </mxCell>
        <mxCell id="frIAkInVryvBUzNSwRUD-39" value="" style="ellipse;whiteSpace=wrap;html=1;aspect=fixed;fillColor=#000000;" parent="1" vertex="1">
          <mxGeometry x="3372" y="-930" width="40" height="40" as="geometry" />
        </mxCell>
        <mxCell id="frIAkInVryvBUzNSwRUD-40" value="" style="ellipse;whiteSpace=wrap;html=1;aspect=fixed;fillColor=#000000;" parent="1" vertex="1">
          <mxGeometry x="3489.75" y="-930" width="40" height="40" as="geometry" />
        </mxCell>
        <mxCell id="frIAkInVryvBUzNSwRUD-41" value="" style="ellipse;whiteSpace=wrap;html=1;aspect=fixed;fillColor=#000000;" parent="1" vertex="1">
          <mxGeometry x="3552" y="-930" width="40" height="40" as="geometry" />
        </mxCell>
        <mxCell id="frIAkInVryvBUzNSwRUD-42" value="&lt;font style=&quot;font-size: 20px;&quot;&gt;......&lt;/font&gt;" style="text;html=1;align=center;verticalAlign=middle;whiteSpace=wrap;rounded=0;" parent="1" vertex="1">
          <mxGeometry x="3312" y="-925" width="290" height="30" as="geometry" />
        </mxCell>
        <mxCell id="frIAkInVryvBUzNSwRUD-43" value="" style="ellipse;whiteSpace=wrap;html=1;aspect=fixed;fillColor=#000000;" parent="1" vertex="1">
          <mxGeometry x="3316" y="-860" width="40" height="40" as="geometry" />
        </mxCell>
        <mxCell id="frIAkInVryvBUzNSwRUD-44" value="" style="ellipse;whiteSpace=wrap;html=1;aspect=fixed;fillColor=#000000;" parent="1" vertex="1">
          <mxGeometry x="3374" y="-860" width="40" height="40" as="geometry" />
        </mxCell>
        <mxCell id="frIAkInVryvBUzNSwRUD-45" value="" style="ellipse;whiteSpace=wrap;html=1;aspect=fixed;fillColor=#000000;" parent="1" vertex="1">
          <mxGeometry x="3491.75" y="-860" width="40" height="40" as="geometry" />
        </mxCell>
        <mxCell id="frIAkInVryvBUzNSwRUD-46" value="" style="ellipse;whiteSpace=wrap;html=1;aspect=fixed;fillColor=#000000;" parent="1" vertex="1">
          <mxGeometry x="3554" y="-860" width="40" height="40" as="geometry" />
        </mxCell>
        <mxCell id="frIAkInVryvBUzNSwRUD-47" value="&lt;font style=&quot;font-size: 20px;&quot;&gt;......&lt;/font&gt;" style="text;html=1;align=center;verticalAlign=middle;whiteSpace=wrap;rounded=0;" parent="1" vertex="1">
          <mxGeometry x="3314" y="-855" width="290" height="30" as="geometry" />
        </mxCell>
        <mxCell id="frIAkInVryvBUzNSwRUD-57" style="edgeStyle=orthogonalEdgeStyle;rounded=0;orthogonalLoop=1;jettySize=auto;html=1;exitX=1;exitY=0.5;exitDx=0;exitDy=0;" parent="1" source="frIAkInVryvBUzNSwRUD-50" edge="1">
          <mxGeometry relative="1" as="geometry">
            <mxPoint x="3563.53" y="-1543.4615384615386" as="targetPoint" />
            <mxPoint x="3553.53" y="-1543.5" as="sourcePoint" />
          </mxGeometry>
        </mxCell>
        <mxCell id="frIAkInVryvBUzNSwRUD-50" value="&lt;font&gt;32&lt;/font&gt;" style="text;html=1;align=center;verticalAlign=middle;whiteSpace=wrap;rounded=0;" parent="1" vertex="1">
          <mxGeometry x="3516.53" y="-1553" width="30" height="19" as="geometry" />
        </mxCell>
        <mxCell id="frIAkInVryvBUzNSwRUD-51" value="" style="endArrow=none;html=1;rounded=0;" parent="1" edge="1">
          <mxGeometry width="50" height="50" relative="1" as="geometry">
            <mxPoint x="3498.53" y="-1510" as="sourcePoint" />
            <mxPoint x="3498.53" y="-1560" as="targetPoint" />
          </mxGeometry>
        </mxCell>
        <mxCell id="frIAkInVryvBUzNSwRUD-52" value="" style="endArrow=none;html=1;rounded=0;" parent="1" edge="1">
          <mxGeometry width="50" height="50" relative="1" as="geometry">
            <mxPoint x="3564.03" y="-1510" as="sourcePoint" />
            <mxPoint x="3564.03" y="-1560" as="targetPoint" />
          </mxGeometry>
        </mxCell>
        <mxCell id="frIAkInVryvBUzNSwRUD-54" value="" style="endArrow=classic;html=1;rounded=0;" parent="1" source="frIAkInVryvBUzNSwRUD-50" edge="1">
          <mxGeometry width="50" height="50" relative="1" as="geometry">
            <mxPoint x="3509.53" y="-1543" as="sourcePoint" />
            <mxPoint x="3499.53" y="-1543.5" as="targetPoint" />
          </mxGeometry>
        </mxCell>
        <mxCell id="frIAkInVryvBUzNSwRUD-55" value="" style="endArrow=none;html=1;rounded=0;" parent="1" edge="1">
          <mxGeometry width="50" height="50" relative="1" as="geometry">
            <mxPoint x="3564.03" y="-1511" as="sourcePoint" />
            <mxPoint x="3564.03" y="-1561" as="targetPoint" />
          </mxGeometry>
        </mxCell>
        <mxCell id="frIAkInVryvBUzNSwRUD-58" style="edgeStyle=orthogonalEdgeStyle;rounded=0;orthogonalLoop=1;jettySize=auto;html=1;exitX=1;exitY=0.5;exitDx=0;exitDy=0;" parent="1" source="frIAkInVryvBUzNSwRUD-59" edge="1">
          <mxGeometry relative="1" as="geometry">
            <mxPoint x="3629.02" y="-1543.4615384615386" as="targetPoint" />
            <mxPoint x="3619.02" y="-1543.5" as="sourcePoint" />
          </mxGeometry>
        </mxCell>
        <mxCell id="frIAkInVryvBUzNSwRUD-59" value="&lt;font&gt;32&lt;/font&gt;" style="text;html=1;align=center;verticalAlign=middle;whiteSpace=wrap;rounded=0;" parent="1" vertex="1">
          <mxGeometry x="3582.02" y="-1553" width="30" height="19" as="geometry" />
        </mxCell>
        <mxCell id="frIAkInVryvBUzNSwRUD-60" value="" style="endArrow=none;html=1;rounded=0;" parent="1" edge="1">
          <mxGeometry width="50" height="50" relative="1" as="geometry">
            <mxPoint x="3564.02" y="-1510" as="sourcePoint" />
            <mxPoint x="3564.02" y="-1560" as="targetPoint" />
          </mxGeometry>
        </mxCell>
        <mxCell id="frIAkInVryvBUzNSwRUD-61" value="" style="endArrow=none;html=1;rounded=0;" parent="1" edge="1">
          <mxGeometry width="50" height="50" relative="1" as="geometry">
            <mxPoint x="3629.52" y="-1510" as="sourcePoint" />
            <mxPoint x="3629.52" y="-1560" as="targetPoint" />
          </mxGeometry>
        </mxCell>
        <mxCell id="frIAkInVryvBUzNSwRUD-62" value="" style="endArrow=classic;html=1;rounded=0;" parent="1" source="frIAkInVryvBUzNSwRUD-59" edge="1">
          <mxGeometry width="50" height="50" relative="1" as="geometry">
            <mxPoint x="3575.02" y="-1543" as="sourcePoint" />
            <mxPoint x="3565.02" y="-1543.5" as="targetPoint" />
          </mxGeometry>
        </mxCell>
        <mxCell id="frIAkInVryvBUzNSwRUD-63" value="" style="endArrow=none;html=1;rounded=0;" parent="1" edge="1">
          <mxGeometry width="50" height="50" relative="1" as="geometry">
            <mxPoint x="3629.52" y="-1511" as="sourcePoint" />
            <mxPoint x="3629.52" y="-1561" as="targetPoint" />
          </mxGeometry>
        </mxCell>
        <mxCell id="frIAkInVryvBUzNSwRUD-64" style="edgeStyle=orthogonalEdgeStyle;rounded=0;orthogonalLoop=1;jettySize=auto;html=1;exitX=1;exitY=0.5;exitDx=0;exitDy=0;" parent="1" source="frIAkInVryvBUzNSwRUD-65" edge="1">
          <mxGeometry relative="1" as="geometry">
            <mxPoint x="3175" y="-1542.9615384615386" as="targetPoint" />
            <mxPoint x="3165" y="-1543" as="sourcePoint" />
          </mxGeometry>
        </mxCell>
        <mxCell id="frIAkInVryvBUzNSwRUD-65" value="&lt;font&gt;32&lt;/font&gt;" style="text;html=1;align=center;verticalAlign=middle;whiteSpace=wrap;rounded=0;" parent="1" vertex="1">
          <mxGeometry x="3128" y="-1552.5" width="30" height="19" as="geometry" />
        </mxCell>
        <mxCell id="frIAkInVryvBUzNSwRUD-66" value="" style="endArrow=none;html=1;rounded=0;" parent="1" edge="1">
          <mxGeometry width="50" height="50" relative="1" as="geometry">
            <mxPoint x="3110" y="-1509.5" as="sourcePoint" />
            <mxPoint x="3110" y="-1559.5" as="targetPoint" />
          </mxGeometry>
        </mxCell>
        <mxCell id="frIAkInVryvBUzNSwRUD-67" value="" style="endArrow=none;html=1;rounded=0;" parent="1" edge="1">
          <mxGeometry width="50" height="50" relative="1" as="geometry">
            <mxPoint x="3175.5" y="-1509.5" as="sourcePoint" />
            <mxPoint x="3175.5" y="-1559.5" as="targetPoint" />
          </mxGeometry>
        </mxCell>
        <mxCell id="frIAkInVryvBUzNSwRUD-68" value="" style="endArrow=classic;html=1;rounded=0;" parent="1" source="frIAkInVryvBUzNSwRUD-65" edge="1">
          <mxGeometry width="50" height="50" relative="1" as="geometry">
            <mxPoint x="3121" y="-1542.5" as="sourcePoint" />
            <mxPoint x="3111" y="-1543" as="targetPoint" />
          </mxGeometry>
        </mxCell>
        <mxCell id="frIAkInVryvBUzNSwRUD-69" value="" style="endArrow=none;html=1;rounded=0;" parent="1" edge="1">
          <mxGeometry width="50" height="50" relative="1" as="geometry">
            <mxPoint x="3175.5" y="-1510.5" as="sourcePoint" />
            <mxPoint x="3175.5" y="-1560.5" as="targetPoint" />
          </mxGeometry>
        </mxCell>
        <mxCell id="frIAkInVryvBUzNSwRUD-70" value="&lt;font style=&quot;font-size: 34px;&quot;&gt;......&lt;/font&gt;" style="text;html=1;align=center;verticalAlign=middle;whiteSpace=wrap;rounded=0;" parent="1" vertex="1">
          <mxGeometry x="2961" y="-2056" width="290" height="30" as="geometry" />
        </mxCell>
        <mxCell id="frIAkInVryvBUzNSwRUD-71" value="&lt;font style=&quot;font-size: 34px;&quot;&gt;......&lt;/font&gt;" style="text;html=1;align=center;verticalAlign=middle;whiteSpace=wrap;rounded=0;" parent="1" vertex="1">
          <mxGeometry x="3242.25" y="-1580" width="179.5" height="57.5" as="geometry" />
        </mxCell>
        <mxCell id="frIAkInVryvBUzNSwRUD-79" value="" style="rounded=0;whiteSpace=wrap;html=1;fillColor=none;" parent="1" vertex="1">
          <mxGeometry x="3110" y="-1510" width="66" height="270" as="geometry" />
        </mxCell>
        <mxCell id="frIAkInVryvBUzNSwRUD-80" value="" style="rounded=0;whiteSpace=wrap;html=1;fillColor=none;" parent="1" vertex="1">
          <mxGeometry x="3498.53" y="-1510" width="66" height="270" as="geometry" />
        </mxCell>
        <mxCell id="frIAkInVryvBUzNSwRUD-81" value="" style="rounded=0;whiteSpace=wrap;html=1;fillColor=none;" parent="1" vertex="1">
          <mxGeometry x="3564" y="-1510" width="66" height="270" as="geometry" />
        </mxCell>
        <mxCell id="frIAkInVryvBUzNSwRUD-84" style="edgeStyle=orthogonalEdgeStyle;rounded=0;orthogonalLoop=1;jettySize=auto;html=1;exitX=0.5;exitY=1;exitDx=0;exitDy=0;entryX=-0.001;entryY=0.134;entryDx=0;entryDy=0;entryPerimeter=0;dashed=1;dashPattern=8 8;" parent="1" source="frIAkInVryvBUzNSwRUD-79" target="frIAkInVryvBUzNSwRUD-12" edge="1">
          <mxGeometry relative="1" as="geometry" />
        </mxCell>
        <mxCell id="frIAkInVryvBUzNSwRUD-86" style="edgeStyle=orthogonalEdgeStyle;rounded=0;orthogonalLoop=1;jettySize=auto;html=1;exitX=0.5;exitY=1;exitDx=0;exitDy=0;entryX=-0.001;entryY=0.651;entryDx=0;entryDy=0;entryPerimeter=0;dashed=1;dashPattern=8 8;" parent="1" source="frIAkInVryvBUzNSwRUD-80" target="frIAkInVryvBUzNSwRUD-12" edge="1">
          <mxGeometry relative="1" as="geometry">
            <Array as="points">
              <mxPoint x="3532" y="-1190" />
              <mxPoint x="3250" y="-1190" />
              <mxPoint x="3250" y="-908" />
            </Array>
          </mxGeometry>
        </mxCell>
        <mxCell id="frIAkInVryvBUzNSwRUD-87" style="edgeStyle=orthogonalEdgeStyle;rounded=0;orthogonalLoop=1;jettySize=auto;html=1;exitX=0.5;exitY=1;exitDx=0;exitDy=0;entryX=0.001;entryY=0.889;entryDx=0;entryDy=0;entryPerimeter=0;dashed=1;dashPattern=8 8;" parent="1" source="frIAkInVryvBUzNSwRUD-81" target="frIAkInVryvBUzNSwRUD-12" edge="1">
          <mxGeometry relative="1" as="geometry">
            <Array as="points">
              <mxPoint x="3597" y="-1165" />
              <mxPoint x="3200" y="-1165" />
              <mxPoint x="3200" y="-841" />
            </Array>
          </mxGeometry>
        </mxCell>
        <mxCell id="frIAkInVryvBUzNSwRUD-89" style="rounded=0;orthogonalLoop=1;jettySize=auto;html=1;entryX=0.5;entryY=0;entryDx=0;entryDy=0;entryPerimeter=0;exitX=0.25;exitY=1;exitDx=0;exitDy=0;" parent="1" source="6O3QmPoWlT5Kj7B08mh7-184" target="6O3QmPoWlT5Kj7B08mh7-30" edge="1">
          <mxGeometry relative="1" as="geometry">
            <mxPoint x="2780" y="-1720" as="sourcePoint" />
          </mxGeometry>
        </mxCell>
        <mxCell id="frIAkInVryvBUzNSwRUD-92" value="" style="endArrow=classic;html=1;rounded=0;entryX=0.5;entryY=0;entryDx=0;entryDy=0;entryPerimeter=0;" parent="1" target="6O3QmPoWlT5Kj7B08mh7-43" edge="1">
          <mxGeometry width="50" height="50" relative="1" as="geometry">
            <mxPoint x="3486" y="-810" as="sourcePoint" />
            <mxPoint x="3480" y="-750" as="targetPoint" />
          </mxGeometry>
        </mxCell>
        <mxCell id="frIAkInVryvBUzNSwRUD-95" value="" style="endArrow=none;html=1;rounded=0;" parent="1" edge="1">
          <mxGeometry width="50" height="50" relative="1" as="geometry">
            <mxPoint x="2965.5" y="-1999" as="sourcePoint" />
            <mxPoint x="2965.5" y="-2049" as="targetPoint" />
          </mxGeometry>
        </mxCell>
        <mxCell id="frIAkInVryvBUzNSwRUD-96" value="&lt;font style=&quot;font-size: 34px;&quot;&gt;......&lt;/font&gt;" style="text;html=1;align=center;verticalAlign=middle;whiteSpace=wrap;rounded=0;" parent="1" vertex="1">
          <mxGeometry x="3457.5" y="-2056" width="290" height="30" as="geometry" />
        </mxCell>
        <mxCell id="frIAkInVryvBUzNSwRUD-97" value="" style="endArrow=none;html=1;rounded=0;entryX=0;entryY=1;entryDx=0;entryDy=0;exitX=0;exitY=0.5;exitDx=0;exitDy=0;dashed=1;dashPattern=1 4;" parent="1" source="frIAkInVryvBUzNSwRUD-79" target="6O3QmPoWlT5Kj7B08mh7-185" edge="1">
          <mxGeometry width="50" height="50" relative="1" as="geometry">
            <mxPoint x="3010" y="-1610" as="sourcePoint" />
            <mxPoint x="3060" y="-1660" as="targetPoint" />
          </mxGeometry>
        </mxCell>
        <mxCell id="frIAkInVryvBUzNSwRUD-99" value="" style="endArrow=none;html=1;rounded=0;entryX=1;entryY=1;entryDx=0;entryDy=0;exitX=1;exitY=0.5;exitDx=0;exitDy=0;dashed=1;dashPattern=1 4;" parent="1" source="frIAkInVryvBUzNSwRUD-81" target="6O3QmPoWlT5Kj7B08mh7-185" edge="1">
          <mxGeometry width="50" height="50" relative="1" as="geometry">
            <mxPoint x="3580" y="-1217" as="sourcePoint" />
            <mxPoint x="3721" y="-1570" as="targetPoint" />
          </mxGeometry>
        </mxCell>
        <mxCell id="CZUojjCP_MgNY5MtERwM-112" value="" style="endArrow=none;html=1;rounded=0;entryX=0;entryY=1;entryDx=0;entryDy=0;dashed=1;dashPattern=1 4;" edge="1" parent="1" target="CZUojjCP_MgNY5MtERwM-5">
          <mxGeometry width="50" height="50" relative="1" as="geometry">
            <mxPoint x="670" y="660" as="sourcePoint" />
            <mxPoint x="714" y="116" as="targetPoint" />
          </mxGeometry>
        </mxCell>
        <mxCell id="CZUojjCP_MgNY5MtERwM-113" value="" style="endArrow=none;html=1;rounded=0;entryX=1;entryY=1;entryDx=0;entryDy=0;dashed=1;dashPattern=1 4;" edge="1" parent="1" target="CZUojjCP_MgNY5MtERwM-5">
          <mxGeometry width="50" height="50" relative="1" as="geometry">
            <mxPoint x="670" y="140" as="sourcePoint" />
            <mxPoint x="1375" y="206" as="targetPoint" />
          </mxGeometry>
        </mxCell>
        <mxCell id="CZUojjCP_MgNY5MtERwM-114" value="" style="group;rotation=-90;" vertex="1" connectable="0" parent="1">
          <mxGeometry x="-230" y="350" width="1125.5" height="328" as="geometry" />
        </mxCell>
        <mxCell id="CZUojjCP_MgNY5MtERwM-3" value="" style="shape=image;verticalLabelPosition=bottom;labelBackgroundColor=default;verticalAlign=top;imageAspect=0;image=https://broadbandlibrary.com/wp-content/uploads/2022/08/Figure.7-768x239.jpg;clipPath=inset(0% 0% 0% 14%);rotation=-90;" vertex="1" parent="CZUojjCP_MgNY5MtERwM-114">
          <mxGeometry x="28" y="29" width="1124.5" height="269" as="geometry" />
        </mxCell>
        <mxCell id="CZUojjCP_MgNY5MtERwM-4" value="" style="rounded=0;whiteSpace=wrap;html=1;fillColor=none;strokeColor=#000000;strokeWidth=4;rotation=-90;" vertex="1" parent="CZUojjCP_MgNY5MtERwM-114">
          <mxGeometry x="466" y="466" width="250" height="270" as="geometry" />
        </mxCell>
        <mxCell id="CZUojjCP_MgNY5MtERwM-5" value="" style="rounded=0;whiteSpace=wrap;html=1;fillColor=none;strokeColor=#000000;strokeWidth=4;rotation=-90;" vertex="1" parent="CZUojjCP_MgNY5MtERwM-114">
          <mxGeometry x="467" y="-70" width="250" height="270" as="geometry" />
        </mxCell>
        <mxCell id="CZUojjCP_MgNY5MtERwM-6" value="&lt;font style=&quot;font-size: 17px;&quot;&gt;1024&lt;/font&gt;" style="text;html=1;align=center;verticalAlign=middle;whiteSpace=wrap;rounded=0;rotation=0;" vertex="1" parent="CZUojjCP_MgNY5MtERwM-114">
          <mxGeometry x="391" y="578" width="60" height="30" as="geometry" />
        </mxCell>
        <mxCell id="CZUojjCP_MgNY5MtERwM-39" value="" style="endArrow=none;html=1;rounded=0;" edge="1" parent="CZUojjCP_MgNY5MtERwM-114">
          <mxGeometry width="50" height="50" relative="1" as="geometry">
            <mxPoint x="456" y="727" as="sourcePoint" />
            <mxPoint x="406" y="727" as="targetPoint" />
          </mxGeometry>
        </mxCell>
        <mxCell id="CZUojjCP_MgNY5MtERwM-40" value="" style="endArrow=none;html=1;rounded=0;" edge="1" parent="CZUojjCP_MgNY5MtERwM-114">
          <mxGeometry width="50" height="50" relative="1" as="geometry">
            <mxPoint x="457" y="191" as="sourcePoint" />
            <mxPoint x="407" y="191" as="targetPoint" />
          </mxGeometry>
        </mxCell>
        <mxCell id="CZUojjCP_MgNY5MtERwM-41" value="" style="endArrow=classic;html=1;rounded=0;exitX=0.5;exitY=0;exitDx=0;exitDy=0;" edge="1" parent="CZUojjCP_MgNY5MtERwM-114" source="CZUojjCP_MgNY5MtERwM-6">
          <mxGeometry width="50" height="50" relative="1" as="geometry">
            <mxPoint x="422" y="556" as="sourcePoint" />
            <mxPoint x="421" y="476" as="targetPoint" />
          </mxGeometry>
        </mxCell>
        <mxCell id="CZUojjCP_MgNY5MtERwM-42" value="" style="endArrow=classic;html=1;rounded=0;" edge="1" parent="CZUojjCP_MgNY5MtERwM-114">
          <mxGeometry width="50" height="50" relative="1" as="geometry">
            <mxPoint x="422" y="626" as="sourcePoint" />
            <mxPoint x="422" y="726" as="targetPoint" />
          </mxGeometry>
        </mxCell>
        <mxCell id="CZUojjCP_MgNY5MtERwM-43" value="&lt;font style=&quot;font-size: 17px;&quot;&gt;1024&lt;/font&gt;" style="text;html=1;align=center;verticalAlign=middle;whiteSpace=wrap;rounded=0;rotation=0;" vertex="1" parent="CZUojjCP_MgNY5MtERwM-114">
          <mxGeometry x="391" y="43" width="60" height="30" as="geometry" />
        </mxCell>
        <mxCell id="CZUojjCP_MgNY5MtERwM-44" value="" style="endArrow=none;html=1;rounded=0;" edge="1" parent="CZUojjCP_MgNY5MtERwM-114">
          <mxGeometry width="50" height="50" relative="1" as="geometry">
            <mxPoint x="456" y="191" as="sourcePoint" />
            <mxPoint x="406" y="191" as="targetPoint" />
          </mxGeometry>
        </mxCell>
        <mxCell id="CZUojjCP_MgNY5MtERwM-45" value="" style="endArrow=none;html=1;rounded=0;" edge="1" parent="CZUojjCP_MgNY5MtERwM-114">
          <mxGeometry width="50" height="50" relative="1" as="geometry">
            <mxPoint x="456" y="-59" as="sourcePoint" />
            <mxPoint x="406" y="-59" as="targetPoint" />
          </mxGeometry>
        </mxCell>
        <mxCell id="CZUojjCP_MgNY5MtERwM-46" value="" style="endArrow=classic;html=1;rounded=0;exitX=0.5;exitY=0;exitDx=0;exitDy=0;" edge="1" parent="CZUojjCP_MgNY5MtERwM-114" source="CZUojjCP_MgNY5MtERwM-43">
          <mxGeometry width="50" height="50" relative="1" as="geometry">
            <mxPoint x="422" y="20" as="sourcePoint" />
            <mxPoint x="421" y="-60" as="targetPoint" />
          </mxGeometry>
        </mxCell>
        <mxCell id="CZUojjCP_MgNY5MtERwM-47" value="" style="endArrow=classic;html=1;rounded=0;" edge="1" parent="CZUojjCP_MgNY5MtERwM-114">
          <mxGeometry width="50" height="50" relative="1" as="geometry">
            <mxPoint x="422" y="90" as="sourcePoint" />
            <mxPoint x="422" y="190" as="targetPoint" />
          </mxGeometry>
        </mxCell>
        <mxCell id="CZUojjCP_MgNY5MtERwM-100" value="&lt;font style=&quot;font-size: 34px;&quot;&gt;......&lt;/font&gt;" style="text;html=1;align=center;verticalAlign=middle;whiteSpace=wrap;rounded=0;rotation=-90;" vertex="1" parent="CZUojjCP_MgNY5MtERwM-114">
          <mxGeometry x="269" y="320" width="290" height="30" as="geometry" />
        </mxCell>
        <mxCell id="CZUojjCP_MgNY5MtERwM-110" value="" style="endArrow=none;html=1;rounded=0;" edge="1" parent="CZUojjCP_MgNY5MtERwM-114">
          <mxGeometry width="50" height="50" relative="1" as="geometry">
            <mxPoint x="456" y="476" as="sourcePoint" />
            <mxPoint x="406" y="476" as="targetPoint" />
          </mxGeometry>
        </mxCell>
        <mxCell id="CZUojjCP_MgNY5MtERwM-111" value="&lt;font style=&quot;font-size: 34px;&quot;&gt;......&lt;/font&gt;" style="text;html=1;align=center;verticalAlign=middle;whiteSpace=wrap;rounded=0;rotation=-90;" vertex="1" parent="CZUojjCP_MgNY5MtERwM-114">
          <mxGeometry x="269" y="-176" width="290" height="30" as="geometry" />
        </mxCell>
        <mxCell id="CZUojjCP_MgNY5MtERwM-115" value="" style="group;rotation=-90;" vertex="1" connectable="0" parent="1">
          <mxGeometry x="560" y="230" width="520" height="340" as="geometry" />
        </mxCell>
        <mxCell id="CZUojjCP_MgNY5MtERwM-1" value="" style="shape=image;verticalLabelPosition=bottom;labelBackgroundColor=default;verticalAlign=top;imageAspect=0;image=https://broadbandlibrary.com/wp-content/uploads/2022/08/Figure.7-768x239.jpg;clipPath=inset(0% 56.33% 0% 14%);rotation=-90;" vertex="1" parent="CZUojjCP_MgNY5MtERwM-115">
          <mxGeometry x="35" y="36" width="520" height="269" as="geometry" />
        </mxCell>
        <mxCell id="CZUojjCP_MgNY5MtERwM-82" style="edgeStyle=orthogonalEdgeStyle;rounded=0;orthogonalLoop=1;jettySize=auto;html=1;exitX=0.5;exitY=0;exitDx=0;exitDy=0;" edge="1" parent="CZUojjCP_MgNY5MtERwM-115" source="CZUojjCP_MgNY5MtERwM-83">
          <mxGeometry relative="1" as="geometry">
            <mxPoint x="127" y="-24" as="targetPoint" />
            <mxPoint x="127" y="-14" as="sourcePoint" />
          </mxGeometry>
        </mxCell>
        <mxCell id="CZUojjCP_MgNY5MtERwM-83" value="&lt;font&gt;32&lt;/font&gt;" style="text;html=1;align=center;verticalAlign=middle;whiteSpace=wrap;rounded=0;rotation=0;" vertex="1" parent="CZUojjCP_MgNY5MtERwM-115">
          <mxGeometry x="112" y="-1" width="30" height="19" as="geometry" />
        </mxCell>
        <mxCell id="CZUojjCP_MgNY5MtERwM-84" value="" style="endArrow=none;html=1;rounded=0;" edge="1" parent="CZUojjCP_MgNY5MtERwM-115">
          <mxGeometry width="50" height="50" relative="1" as="geometry">
            <mxPoint x="160" y="41" as="sourcePoint" />
            <mxPoint x="110" y="41" as="targetPoint" />
          </mxGeometry>
        </mxCell>
        <mxCell id="CZUojjCP_MgNY5MtERwM-85" value="" style="endArrow=none;html=1;rounded=0;" edge="1" parent="CZUojjCP_MgNY5MtERwM-115">
          <mxGeometry width="50" height="50" relative="1" as="geometry">
            <mxPoint x="160" y="-24" as="sourcePoint" />
            <mxPoint x="110" y="-24" as="targetPoint" />
          </mxGeometry>
        </mxCell>
        <mxCell id="CZUojjCP_MgNY5MtERwM-86" value="" style="endArrow=classic;html=1;rounded=0;" edge="1" parent="CZUojjCP_MgNY5MtERwM-115" source="CZUojjCP_MgNY5MtERwM-83">
          <mxGeometry width="50" height="50" relative="1" as="geometry">
            <mxPoint x="127" y="30" as="sourcePoint" />
            <mxPoint x="127" y="40" as="targetPoint" />
          </mxGeometry>
        </mxCell>
        <mxCell id="CZUojjCP_MgNY5MtERwM-87" value="" style="endArrow=none;html=1;rounded=0;" edge="1" parent="CZUojjCP_MgNY5MtERwM-115">
          <mxGeometry width="50" height="50" relative="1" as="geometry">
            <mxPoint x="159" y="-24" as="sourcePoint" />
            <mxPoint x="109" y="-24" as="targetPoint" />
          </mxGeometry>
        </mxCell>
        <mxCell id="CZUojjCP_MgNY5MtERwM-88" style="edgeStyle=orthogonalEdgeStyle;rounded=0;orthogonalLoop=1;jettySize=auto;html=1;exitX=0.5;exitY=0;exitDx=0;exitDy=0;" edge="1" parent="CZUojjCP_MgNY5MtERwM-115" source="CZUojjCP_MgNY5MtERwM-89">
          <mxGeometry relative="1" as="geometry">
            <mxPoint x="127" y="-89" as="targetPoint" />
            <mxPoint x="127" y="-79" as="sourcePoint" />
          </mxGeometry>
        </mxCell>
        <mxCell id="CZUojjCP_MgNY5MtERwM-89" value="&lt;font&gt;32&lt;/font&gt;" style="text;html=1;align=center;verticalAlign=middle;whiteSpace=wrap;rounded=0;rotation=0;" vertex="1" parent="CZUojjCP_MgNY5MtERwM-115">
          <mxGeometry x="112" y="-67" width="30" height="19" as="geometry" />
        </mxCell>
        <mxCell id="CZUojjCP_MgNY5MtERwM-90" value="" style="endArrow=none;html=1;rounded=0;" edge="1" parent="CZUojjCP_MgNY5MtERwM-115">
          <mxGeometry width="50" height="50" relative="1" as="geometry">
            <mxPoint x="160" y="-24" as="sourcePoint" />
            <mxPoint x="110" y="-24" as="targetPoint" />
          </mxGeometry>
        </mxCell>
        <mxCell id="CZUojjCP_MgNY5MtERwM-91" value="" style="endArrow=none;html=1;rounded=0;" edge="1" parent="CZUojjCP_MgNY5MtERwM-115">
          <mxGeometry width="50" height="50" relative="1" as="geometry">
            <mxPoint x="160" y="-90" as="sourcePoint" />
            <mxPoint x="110" y="-90" as="targetPoint" />
          </mxGeometry>
        </mxCell>
        <mxCell id="CZUojjCP_MgNY5MtERwM-92" value="" style="endArrow=classic;html=1;rounded=0;" edge="1" parent="CZUojjCP_MgNY5MtERwM-115" source="CZUojjCP_MgNY5MtERwM-89">
          <mxGeometry width="50" height="50" relative="1" as="geometry">
            <mxPoint x="127" y="-35" as="sourcePoint" />
            <mxPoint x="127" y="-25" as="targetPoint" />
          </mxGeometry>
        </mxCell>
        <mxCell id="CZUojjCP_MgNY5MtERwM-93" value="" style="endArrow=none;html=1;rounded=0;" edge="1" parent="CZUojjCP_MgNY5MtERwM-115">
          <mxGeometry width="50" height="50" relative="1" as="geometry">
            <mxPoint x="159" y="-90" as="sourcePoint" />
            <mxPoint x="109" y="-90" as="targetPoint" />
          </mxGeometry>
        </mxCell>
        <mxCell id="CZUojjCP_MgNY5MtERwM-94" style="edgeStyle=orthogonalEdgeStyle;rounded=0;orthogonalLoop=1;jettySize=auto;html=1;exitX=0.5;exitY=0;exitDx=0;exitDy=0;" edge="1" parent="CZUojjCP_MgNY5MtERwM-115" source="CZUojjCP_MgNY5MtERwM-95">
          <mxGeometry relative="1" as="geometry">
            <mxPoint x="127" y="365" as="targetPoint" />
            <mxPoint x="127" y="375" as="sourcePoint" />
          </mxGeometry>
        </mxCell>
        <mxCell id="CZUojjCP_MgNY5MtERwM-95" value="&lt;font&gt;32&lt;/font&gt;" style="text;html=1;align=center;verticalAlign=middle;whiteSpace=wrap;rounded=0;rotation=0;" vertex="1" parent="CZUojjCP_MgNY5MtERwM-115">
          <mxGeometry x="112" y="388" width="30" height="19" as="geometry" />
        </mxCell>
        <mxCell id="CZUojjCP_MgNY5MtERwM-96" value="" style="endArrow=none;html=1;rounded=0;" edge="1" parent="CZUojjCP_MgNY5MtERwM-115">
          <mxGeometry width="50" height="50" relative="1" as="geometry">
            <mxPoint x="161" y="430" as="sourcePoint" />
            <mxPoint x="110" y="430" as="targetPoint" />
          </mxGeometry>
        </mxCell>
        <mxCell id="CZUojjCP_MgNY5MtERwM-97" value="" style="endArrow=none;html=1;rounded=0;" edge="1" parent="CZUojjCP_MgNY5MtERwM-115">
          <mxGeometry width="50" height="50" relative="1" as="geometry">
            <mxPoint x="161" y="365" as="sourcePoint" />
            <mxPoint x="111" y="365" as="targetPoint" />
          </mxGeometry>
        </mxCell>
        <mxCell id="CZUojjCP_MgNY5MtERwM-98" value="" style="endArrow=classic;html=1;rounded=0;" edge="1" parent="CZUojjCP_MgNY5MtERwM-115" source="CZUojjCP_MgNY5MtERwM-95">
          <mxGeometry width="50" height="50" relative="1" as="geometry">
            <mxPoint x="127" y="419" as="sourcePoint" />
            <mxPoint x="127" y="429" as="targetPoint" />
          </mxGeometry>
        </mxCell>
        <mxCell id="CZUojjCP_MgNY5MtERwM-99" value="" style="endArrow=none;html=1;rounded=0;" edge="1" parent="CZUojjCP_MgNY5MtERwM-115">
          <mxGeometry width="50" height="50" relative="1" as="geometry">
            <mxPoint x="160" y="365" as="sourcePoint" />
            <mxPoint x="110" y="365" as="targetPoint" />
          </mxGeometry>
        </mxCell>
        <mxCell id="CZUojjCP_MgNY5MtERwM-101" value="&lt;font style=&quot;font-size: 34px;&quot;&gt;......&lt;/font&gt;" style="text;html=1;align=center;verticalAlign=middle;whiteSpace=wrap;rounded=0;rotation=-90;" vertex="1" parent="CZUojjCP_MgNY5MtERwM-115">
          <mxGeometry x="29" y="179" width="179.5" height="57.5" as="geometry" />
        </mxCell>
        <mxCell id="CZUojjCP_MgNY5MtERwM-102" value="" style="rounded=0;whiteSpace=wrap;html=1;fillColor=none;rotation=-90;" vertex="1" parent="CZUojjCP_MgNY5MtERwM-115">
          <mxGeometry x="262" y="262" width="66" height="270" as="geometry" />
        </mxCell>
        <mxCell id="CZUojjCP_MgNY5MtERwM-103" value="" style="rounded=0;whiteSpace=wrap;html=1;fillColor=none;rotation=-90;" vertex="1" parent="CZUojjCP_MgNY5MtERwM-115">
          <mxGeometry x="262" y="-127" width="66" height="270" as="geometry" />
        </mxCell>
        <mxCell id="CZUojjCP_MgNY5MtERwM-104" value="" style="rounded=0;whiteSpace=wrap;html=1;fillColor=none;rotation=-90;" vertex="1" parent="CZUojjCP_MgNY5MtERwM-115">
          <mxGeometry x="262" y="-192" width="66" height="270" as="geometry" />
        </mxCell>
        <mxCell id="CZUojjCP_MgNY5MtERwM-116" value="" style="group" vertex="1" connectable="0" parent="1">
          <mxGeometry x="1190" y="230" width="380.5" height="331" as="geometry" />
        </mxCell>
        <mxCell id="CZUojjCP_MgNY5MtERwM-48" value="" style="rounded=0;whiteSpace=wrap;html=1;strokeColor=none;" vertex="1" parent="CZUojjCP_MgNY5MtERwM-116">
          <mxGeometry x="0.5" y="51" width="315.5" height="280" as="geometry" />
        </mxCell>
        <mxCell id="CZUojjCP_MgNY5MtERwM-49" value="" style="endArrow=none;html=1;rounded=0;exitX=0;exitY=0;exitDx=0;exitDy=0;" edge="1" parent="CZUojjCP_MgNY5MtERwM-116" source="CZUojjCP_MgNY5MtERwM-48">
          <mxGeometry width="50" height="50" relative="1" as="geometry">
            <mxPoint x="0.5" y="51" as="sourcePoint" />
            <mxPoint x="316.5" y="51" as="targetPoint" />
          </mxGeometry>
        </mxCell>
        <mxCell id="CZUojjCP_MgNY5MtERwM-50" value="" style="endArrow=none;html=1;rounded=0;exitX=0;exitY=0;exitDx=0;exitDy=0;" edge="1" parent="CZUojjCP_MgNY5MtERwM-116">
          <mxGeometry width="50" height="50" relative="1" as="geometry">
            <mxPoint x="0.5" y="121" as="sourcePoint" />
            <mxPoint x="316.5" y="121" as="targetPoint" />
          </mxGeometry>
        </mxCell>
        <mxCell id="CZUojjCP_MgNY5MtERwM-51" value="" style="endArrow=none;html=1;rounded=0;exitX=0;exitY=0;exitDx=0;exitDy=0;" edge="1" parent="CZUojjCP_MgNY5MtERwM-116">
          <mxGeometry width="50" height="50" relative="1" as="geometry">
            <mxPoint x="0.5" y="191" as="sourcePoint" />
            <mxPoint x="316.5" y="191" as="targetPoint" />
          </mxGeometry>
        </mxCell>
        <mxCell id="CZUojjCP_MgNY5MtERwM-52" value="" style="endArrow=none;html=1;rounded=0;exitX=0;exitY=0;exitDx=0;exitDy=0;" edge="1" parent="CZUojjCP_MgNY5MtERwM-116">
          <mxGeometry width="50" height="50" relative="1" as="geometry">
            <mxPoint y="261" as="sourcePoint" />
            <mxPoint x="316" y="261" as="targetPoint" />
          </mxGeometry>
        </mxCell>
        <mxCell id="CZUojjCP_MgNY5MtERwM-53" value="" style="endArrow=none;html=1;rounded=0;exitX=0;exitY=0;exitDx=0;exitDy=0;" edge="1" parent="CZUojjCP_MgNY5MtERwM-116">
          <mxGeometry width="50" height="50" relative="1" as="geometry">
            <mxPoint x="0.5" y="331" as="sourcePoint" />
            <mxPoint x="316.5" y="331" as="targetPoint" />
          </mxGeometry>
        </mxCell>
        <mxCell id="CZUojjCP_MgNY5MtERwM-54" value="&lt;font style=&quot;font-size: 34px;&quot;&gt;......&lt;/font&gt;" style="text;html=1;align=center;verticalAlign=middle;whiteSpace=wrap;rounded=0;" vertex="1" parent="CZUojjCP_MgNY5MtERwM-116">
          <mxGeometry x="10.5" y="141" width="290" height="30" as="geometry" />
        </mxCell>
        <mxCell id="CZUojjCP_MgNY5MtERwM-55" value="" style="ellipse;whiteSpace=wrap;html=1;aspect=fixed;fillColor=#000000;" vertex="1" parent="CZUojjCP_MgNY5MtERwM-116">
          <mxGeometry x="12.5" y="67" width="40" height="40" as="geometry" />
        </mxCell>
        <mxCell id="CZUojjCP_MgNY5MtERwM-56" value="" style="endArrow=none;html=1;rounded=0;" edge="1" parent="CZUojjCP_MgNY5MtERwM-116">
          <mxGeometry width="50" height="50" relative="1" as="geometry">
            <mxPoint x="0.5" y="51" as="sourcePoint" />
            <mxPoint x="0.5" y="1" as="targetPoint" />
          </mxGeometry>
        </mxCell>
        <mxCell id="CZUojjCP_MgNY5MtERwM-57" value="&lt;font style=&quot;font-size: 17px;&quot;&gt;32&lt;/font&gt;" style="text;html=1;align=center;verticalAlign=middle;whiteSpace=wrap;rounded=0;" vertex="1" parent="CZUojjCP_MgNY5MtERwM-116">
          <mxGeometry x="128.25" y="2" width="60" height="30" as="geometry" />
        </mxCell>
        <mxCell id="CZUojjCP_MgNY5MtERwM-58" value="" style="endArrow=none;html=1;rounded=0;" edge="1" parent="CZUojjCP_MgNY5MtERwM-116">
          <mxGeometry width="50" height="50" relative="1" as="geometry">
            <mxPoint x="0.5" y="50" as="sourcePoint" />
            <mxPoint x="0.5" as="targetPoint" />
          </mxGeometry>
        </mxCell>
        <mxCell id="CZUojjCP_MgNY5MtERwM-59" value="" style="endArrow=none;html=1;rounded=0;" edge="1" parent="CZUojjCP_MgNY5MtERwM-116">
          <mxGeometry width="50" height="50" relative="1" as="geometry">
            <mxPoint x="315.28999999999996" y="51" as="sourcePoint" />
            <mxPoint x="315.28999999999996" y="1" as="targetPoint" />
          </mxGeometry>
        </mxCell>
        <mxCell id="CZUojjCP_MgNY5MtERwM-60" value="" style="endArrow=classic;html=1;rounded=0;exitX=1;exitY=0.5;exitDx=0;exitDy=0;" edge="1" parent="CZUojjCP_MgNY5MtERwM-116" source="CZUojjCP_MgNY5MtERwM-57">
          <mxGeometry width="50" height="50" relative="1" as="geometry">
            <mxPoint x="192.25" y="17" as="sourcePoint" />
            <mxPoint x="314.5" y="17" as="targetPoint" />
          </mxGeometry>
        </mxCell>
        <mxCell id="CZUojjCP_MgNY5MtERwM-61" value="" style="endArrow=classic;html=1;rounded=0;exitX=0;exitY=0.5;exitDx=0;exitDy=0;" edge="1" parent="CZUojjCP_MgNY5MtERwM-116" source="CZUojjCP_MgNY5MtERwM-57">
          <mxGeometry width="50" height="50" relative="1" as="geometry">
            <mxPoint x="101.5" y="16.5" as="sourcePoint" />
            <mxPoint x="1.5" y="16.5" as="targetPoint" />
          </mxGeometry>
        </mxCell>
        <mxCell id="CZUojjCP_MgNY5MtERwM-62" value="" style="endArrow=none;html=1;rounded=0;" edge="1" parent="CZUojjCP_MgNY5MtERwM-116">
          <mxGeometry width="50" height="50" relative="1" as="geometry">
            <mxPoint x="316" y="50.289999999999964" as="sourcePoint" />
            <mxPoint x="316" y="0.2899999999999636" as="targetPoint" />
          </mxGeometry>
        </mxCell>
        <mxCell id="CZUojjCP_MgNY5MtERwM-63" value="&lt;font style=&quot;font-size: 17px;&quot;&gt;32&lt;/font&gt;" style="text;html=1;align=center;verticalAlign=middle;whiteSpace=wrap;rounded=0;" vertex="1" parent="CZUojjCP_MgNY5MtERwM-116">
          <mxGeometry x="320.5" y="161" width="60" height="30" as="geometry" />
        </mxCell>
        <mxCell id="CZUojjCP_MgNY5MtERwM-64" value="" style="endArrow=none;html=1;rounded=0;exitX=1;exitY=0;exitDx=0;exitDy=0;" edge="1" parent="CZUojjCP_MgNY5MtERwM-116" source="CZUojjCP_MgNY5MtERwM-48">
          <mxGeometry width="50" height="50" relative="1" as="geometry">
            <mxPoint x="316" y="49.289999999999964" as="sourcePoint" />
            <mxPoint x="380.5" y="51" as="targetPoint" />
          </mxGeometry>
        </mxCell>
        <mxCell id="CZUojjCP_MgNY5MtERwM-65" value="" style="endArrow=none;html=1;rounded=0;" edge="1" parent="CZUojjCP_MgNY5MtERwM-116">
          <mxGeometry width="50" height="50" relative="1" as="geometry">
            <mxPoint x="316" y="331" as="sourcePoint" />
            <mxPoint x="380.5" y="331" as="targetPoint" />
          </mxGeometry>
        </mxCell>
        <mxCell id="CZUojjCP_MgNY5MtERwM-66" value="" style="endArrow=classic;html=1;rounded=0;exitX=0.5;exitY=1;exitDx=0;exitDy=0;" edge="1" parent="CZUojjCP_MgNY5MtERwM-116" source="CZUojjCP_MgNY5MtERwM-63">
          <mxGeometry width="50" height="50" relative="1" as="geometry">
            <mxPoint x="507.75" y="16.289999999999964" as="sourcePoint" />
            <mxPoint x="350.5" y="331" as="targetPoint" />
          </mxGeometry>
        </mxCell>
        <mxCell id="CZUojjCP_MgNY5MtERwM-67" value="" style="endArrow=classic;html=1;rounded=0;exitX=0.5;exitY=0;exitDx=0;exitDy=0;" edge="1" parent="CZUojjCP_MgNY5MtERwM-116" source="CZUojjCP_MgNY5MtERwM-63">
          <mxGeometry width="50" height="50" relative="1" as="geometry">
            <mxPoint x="417" y="15.789999999999964" as="sourcePoint" />
            <mxPoint x="350.5" y="51" as="targetPoint" />
          </mxGeometry>
        </mxCell>
        <mxCell id="CZUojjCP_MgNY5MtERwM-68" value="" style="ellipse;whiteSpace=wrap;html=1;aspect=fixed;fillColor=#000000;" vertex="1" parent="CZUojjCP_MgNY5MtERwM-116">
          <mxGeometry x="70.5" y="67" width="40" height="40" as="geometry" />
        </mxCell>
        <mxCell id="CZUojjCP_MgNY5MtERwM-69" value="" style="ellipse;whiteSpace=wrap;html=1;aspect=fixed;fillColor=#000000;" vertex="1" parent="CZUojjCP_MgNY5MtERwM-116">
          <mxGeometry x="188.25" y="67" width="40" height="40" as="geometry" />
        </mxCell>
        <mxCell id="CZUojjCP_MgNY5MtERwM-70" value="" style="ellipse;whiteSpace=wrap;html=1;aspect=fixed;fillColor=#000000;" vertex="1" parent="CZUojjCP_MgNY5MtERwM-116">
          <mxGeometry x="250.5" y="67" width="40" height="40" as="geometry" />
        </mxCell>
        <mxCell id="CZUojjCP_MgNY5MtERwM-71" value="&lt;font style=&quot;font-size: 20px;&quot;&gt;......&lt;/font&gt;" style="text;html=1;align=center;verticalAlign=middle;whiteSpace=wrap;rounded=0;" vertex="1" parent="CZUojjCP_MgNY5MtERwM-116">
          <mxGeometry x="10.5" y="72" width="290" height="30" as="geometry" />
        </mxCell>
        <mxCell id="CZUojjCP_MgNY5MtERwM-72" value="" style="ellipse;whiteSpace=wrap;html=1;aspect=fixed;fillColor=#000000;" vertex="1" parent="CZUojjCP_MgNY5MtERwM-116">
          <mxGeometry x="14.5" y="211" width="40" height="40" as="geometry" />
        </mxCell>
        <mxCell id="CZUojjCP_MgNY5MtERwM-73" value="" style="ellipse;whiteSpace=wrap;html=1;aspect=fixed;fillColor=#000000;" vertex="1" parent="CZUojjCP_MgNY5MtERwM-116">
          <mxGeometry x="72.5" y="211" width="40" height="40" as="geometry" />
        </mxCell>
        <mxCell id="CZUojjCP_MgNY5MtERwM-74" value="" style="ellipse;whiteSpace=wrap;html=1;aspect=fixed;fillColor=#000000;" vertex="1" parent="CZUojjCP_MgNY5MtERwM-116">
          <mxGeometry x="190.25" y="211" width="40" height="40" as="geometry" />
        </mxCell>
        <mxCell id="CZUojjCP_MgNY5MtERwM-75" value="" style="ellipse;whiteSpace=wrap;html=1;aspect=fixed;fillColor=#000000;" vertex="1" parent="CZUojjCP_MgNY5MtERwM-116">
          <mxGeometry x="252.5" y="211" width="40" height="40" as="geometry" />
        </mxCell>
        <mxCell id="CZUojjCP_MgNY5MtERwM-76" value="&lt;font style=&quot;font-size: 20px;&quot;&gt;......&lt;/font&gt;" style="text;html=1;align=center;verticalAlign=middle;whiteSpace=wrap;rounded=0;" vertex="1" parent="CZUojjCP_MgNY5MtERwM-116">
          <mxGeometry x="12.5" y="216" width="290" height="30" as="geometry" />
        </mxCell>
        <mxCell id="CZUojjCP_MgNY5MtERwM-77" value="" style="ellipse;whiteSpace=wrap;html=1;aspect=fixed;fillColor=#000000;" vertex="1" parent="CZUojjCP_MgNY5MtERwM-116">
          <mxGeometry x="16.5" y="281" width="40" height="40" as="geometry" />
        </mxCell>
        <mxCell id="CZUojjCP_MgNY5MtERwM-78" value="" style="ellipse;whiteSpace=wrap;html=1;aspect=fixed;fillColor=#000000;" vertex="1" parent="CZUojjCP_MgNY5MtERwM-116">
          <mxGeometry x="74.5" y="281" width="40" height="40" as="geometry" />
        </mxCell>
        <mxCell id="CZUojjCP_MgNY5MtERwM-79" value="" style="ellipse;whiteSpace=wrap;html=1;aspect=fixed;fillColor=#000000;" vertex="1" parent="CZUojjCP_MgNY5MtERwM-116">
          <mxGeometry x="192.25" y="281" width="40" height="40" as="geometry" />
        </mxCell>
        <mxCell id="CZUojjCP_MgNY5MtERwM-80" value="" style="ellipse;whiteSpace=wrap;html=1;aspect=fixed;fillColor=#000000;" vertex="1" parent="CZUojjCP_MgNY5MtERwM-116">
          <mxGeometry x="254.5" y="281" width="40" height="40" as="geometry" />
        </mxCell>
        <mxCell id="CZUojjCP_MgNY5MtERwM-81" value="&lt;font style=&quot;font-size: 20px;&quot;&gt;......&lt;/font&gt;" style="text;html=1;align=center;verticalAlign=middle;whiteSpace=wrap;rounded=0;" vertex="1" parent="CZUojjCP_MgNY5MtERwM-116">
          <mxGeometry x="14.5" y="286" width="290" height="30" as="geometry" />
        </mxCell>
        <mxCell id="CZUojjCP_MgNY5MtERwM-117" value="" style="endArrow=classic;html=1;rounded=0;exitX=0.5;exitY=1;exitDx=0;exitDy=0;entryX=-0.01;entryY=0.887;entryDx=0;entryDy=0;entryPerimeter=0;edgeStyle=orthogonalEdgeStyle;" edge="1" parent="1" source="CZUojjCP_MgNY5MtERwM-102" target="CZUojjCP_MgNY5MtERwM-48">
          <mxGeometry width="50" height="50" relative="1" as="geometry">
            <mxPoint x="1100" y="660" as="sourcePoint" />
            <mxPoint x="1150" y="610" as="targetPoint" />
            <Array as="points">
              <mxPoint x="1110" y="627" />
              <mxPoint x="1110" y="529" />
            </Array>
          </mxGeometry>
        </mxCell>
        <mxCell id="CZUojjCP_MgNY5MtERwM-118" style="edgeStyle=orthogonalEdgeStyle;rounded=0;orthogonalLoop=1;jettySize=auto;html=1;exitX=0.5;exitY=1;exitDx=0;exitDy=0;entryX=-0.002;entryY=0.63;entryDx=0;entryDy=0;entryPerimeter=0;" edge="1" parent="1" source="CZUojjCP_MgNY5MtERwM-103" target="CZUojjCP_MgNY5MtERwM-48">
          <mxGeometry relative="1" as="geometry" />
        </mxCell>
        <mxCell id="CZUojjCP_MgNY5MtERwM-119" style="edgeStyle=orthogonalEdgeStyle;rounded=0;orthogonalLoop=1;jettySize=auto;html=1;exitX=0.5;exitY=1;exitDx=0;exitDy=0;entryX=-0.002;entryY=0.125;entryDx=0;entryDy=0;entryPerimeter=0;" edge="1" parent="1" source="CZUojjCP_MgNY5MtERwM-104" target="CZUojjCP_MgNY5MtERwM-48">
          <mxGeometry relative="1" as="geometry">
            <Array as="points">
              <mxPoint x="1140" y="173" />
              <mxPoint x="1140" y="316" />
            </Array>
          </mxGeometry>
        </mxCell>
      </root>
    </mxGraphModel>
  </diagram>
</mxfile>
